SA Beginner-Extra Bold.ufo
<glyph name="exclam" format="2">
  <advance width="299"/>
  <unicode hex="0021"/>
  <outline>
    <contour>
      <point x="154" y="176" type="curve" smooth="yes"/>
      <point x="173" y="176"/>
      <point x="203" y="185"/>
      <point x="207" y="220" type="curve" smooth="yes"/>
      <point x="248" y="587" type="line" smooth="yes"/>
      <point x="253" y="633"/>
      <point x="233" y="650"/>
      <point x="202" y="650" type="curve" smooth="yes"/>
      <point x="183" y="650"/>
      <point x="153" y="641"/>
      <point x="149" y="607" type="curve" smooth="yes"/>
      <point x="108" y="240" type="line" smooth="yes"/>
      <point x="103" y="193"/>
      <point x="123" y="176"/>
    </contour>
    <contour>
      <point x="140" y="0" type="curve" smooth="yes"/>
      <point x="173" y="0"/>
      <point x="203" y="30"/>
      <point x="203" y="65" type="curve" smooth="yes"/>
      <point x="203" y="98"/>
      <point x="173" y="126"/>
      <point x="140" y="126" type="curve" smooth="yes"/>
      <point x="105" y="126"/>
      <point x="78" y="98"/>
      <point x="78" y="65" type="curve" smooth="yes"/>
      <point x="78" y="30"/>
      <point x="105" y="0"/>
    </contour>
  </outline>
</glyph>
<glyph name="quotedbl" format="2">
  <advance width="392"/>
  <unicode hex="0022"/>
  <outline>
    <contour>
      <point x="135" y="456" type="curve" smooth="yes"/>
      <point x="158" y="456"/>
      <point x="182" y="471"/>
      <point x="185" y="498" type="curve" smooth="yes"/>
      <point x="195" y="594" type="line" smooth="yes"/>
      <point x="199" y="628"/>
      <point x="174" y="650"/>
      <point x="146" y="650" type="curve" smooth="yes"/>
      <point x="123" y="650"/>
      <point x="98" y="634"/>
      <point x="95" y="606" type="curve" smooth="yes"/>
      <point x="84" y="510" type="line" smooth="yes"/>
      <point x="81" y="477"/>
      <point x="107" y="456"/>
    </contour>
    <contour>
      <point x="294" y="456" type="curve" smooth="yes"/>
      <point x="316" y="456"/>
      <point x="342" y="470"/>
      <point x="344" y="496" type="curve" smooth="yes"/>
      <point x="354" y="595" type="line" smooth="yes"/>
      <point x="358" y="629"/>
      <point x="331" y="650"/>
      <point x="303" y="650" type="curve" smooth="yes"/>
      <point x="280" y="650"/>
      <point x="257" y="635"/>
      <point x="253" y="610" type="curve" smooth="yes"/>
      <point x="242" y="510" type="line" smooth="yes"/>
      <point x="238" y="472"/>
      <point x="270" y="456"/>
    </contour>
  </outline>
</glyph>
<glyph name="dollar" format="2">
	<advance width="456"/>
	<unicode hex="0024"/>
	<outline>
		<contour>
			<point x="171" y="-4" type="curve" smooth="yes"/>
			<point x="287" y="-4"/>
			<point x="388" y="38"/>
			<point x="399" y="139" type="curve" smooth="yes"/>
			<point x="407" y="228"/>
			<point x="337" y="279"/>
			<point x="261" y="323" type="curve" smooth="yes"/>
			<point x="183" y="368"/>
			<point x="153" y="372"/>
			<point x="157" y="405" type="curve" smooth="yes"/>
			<point x="161" y="446"/>
			<point x="195" y="478"/>
			<point x="274" y="478" type="curve" smooth="yes"/>
			<point x="311" y="478"/>
			<point x="334" y="463"/>
			<point x="344" y="436" type="curve" smooth="yes"/>
			<point x="354" y="411"/>
			<point x="375" y="393"/>
			<point x="400" y="401" type="curve" smooth="yes"/>
			<point x="429" y="410"/>
			<point x="438" y="441"/>
			<point x="426" y="471" type="curve" smooth="yes"/>
			<point x="408" y="525"/>
			<point x="358" y="568"/>
			<point x="272" y="568" type="curve" smooth="yes"/>
			<point x="138" y="568"/>
			<point x="67" y="497"/>
			<point x="57" y="415" type="curve" smooth="yes"/>
			<point x="48" y="323"/>
			<point x="123" y="285"/>
			<point x="199" y="243" type="curve" smooth="yes"/>
			<point x="280" y="196"/>
			<point x="304" y="188"/>
			<point x="300" y="151" type="curve" smooth="yes"/>
			<point x="295" y="109"/>
			<point x="246" y="86"/>
			<point x="186" y="86" type="curve" smooth="yes"/>
			<point x="139" y="86"/>
			<point x="118" y="102"/>
			<point x="112" y="123" type="curve" smooth="yes"/>
			<point x="106" y="154"/>
			<point x="82" y="170"/>
			<point x="54" y="162" type="curve" smooth="yes"/>
			<point x="28" y="154"/>
			<point x="18" y="128"/>
			<point x="27" y="96" type="curve" smooth="yes"/>
			<point x="42" y="35"/>
			<point x="94" y="-4"/>
		</contour>
		<contour>
			<point x="193" y="-39" type="curve" smooth="yes"/>
			<point x="222" y="-39"/>
			<point x="243" y="-21"/>
			<point x="247" y="12" type="curve" smooth="yes"/>
			<point x="306" y="558" type="line" smooth="yes"/>
			<point x="309" y="586"/>
			<point x="294" y="611"/>
			<point x="259" y="611" type="curve" smooth="yes"/>
			<point x="229" y="611"/>
			<point x="209" y="590"/>
			<point x="206" y="563" type="curve" smooth="yes"/>
			<point x="147" y="18" type="line" smooth="yes"/>
			<point x="143" y="-18"/>
			<point x="160" y="-39"/>
		</contour>
	</outline>
</glyph>
<glyph name="percent" format="2">
	<advance width="579"/>
	<unicode hex="0025"/>
	<outline>
		<contour>
			<point x="157" y="0" type="curve" smooth="yes"/>
			<point x="171" y="0"/>
			<point x="182" y="10"/>
			<point x="193" y="30" type="curve" smooth="yes"/>
			<point x="460" y="493" type="line" smooth="yes"/>
			<point x="481" y="530"/>
			<point x="457" y="568"/>
			<point x="426" y="568" type="curve" smooth="yes"/>
			<point x="406" y="568"/>
			<point x="389" y="556"/>
			<point x="377" y="534" type="curve" smooth="yes"/>
			<point x="113" y="67" type="line" smooth="yes"/>
			<point x="96" y="37"/>
			<point x="111" y="0"/>
		</contour>
		<contour>
			<point x="130" y="290" type="curve" smooth="yes"/>
			<point x="207" y="290"/>
			<point x="246" y="363"/>
			<point x="255" y="432" type="curve" smooth="yes"/>
			<point x="262" y="503"/>
			<point x="233" y="572"/>
			<point x="160" y="572" type="curve" smooth="yes"/>
			<point x="99" y="572"/>
			<point x="46" y="525"/>
			<point x="36" y="432" type="curve" smooth="yes"/>
			<point x="29" y="361"/>
			<point x="58" y="290"/>
		</contour>
		<contour>
			<point x="140" y="377" type="curve" smooth="yes"/>
			<point x="116" y="377"/>
			<point x="109" y="403"/>
			<point x="112" y="431" type="curve" smooth="yes"/>
			<point x="115" y="470"/>
			<point x="131" y="487"/>
			<point x="152" y="487" type="curve" smooth="yes"/>
			<point x="177" y="487"/>
			<point x="181" y="454"/>
			<point x="178" y="433" type="curve" smooth="yes"/>
			<point x="175" y="396"/>
			<point x="158" y="377"/>
		</contour>
		<contour>
			<point x="413" y="-4" type="curve" smooth="yes"/>
			<point x="490" y="-4"/>
			<point x="529" y="69"/>
			<point x="538" y="138" type="curve" smooth="yes"/>
			<point x="545" y="209"/>
			<point x="516" y="278"/>
			<point x="443" y="278" type="curve" smooth="yes"/>
			<point x="382" y="278"/>
			<point x="329" y="231"/>
			<point x="319" y="138" type="curve" smooth="yes"/>
			<point x="312" y="67"/>
			<point x="341" y="-4"/>
		</contour>
		<contour>
			<point x="423" y="83" type="curve" smooth="yes"/>
			<point x="399" y="83"/>
			<point x="392" y="109"/>
			<point x="395" y="137" type="curve" smooth="yes"/>
			<point x="398" y="176"/>
			<point x="414" y="193"/>
			<point x="435" y="193" type="curve" smooth="yes"/>
			<point x="460" y="193"/>
			<point x="464" y="160"/>
			<point x="461" y="139" type="curve" smooth="yes"/>
			<point x="458" y="102"/>
			<point x="441" y="83"/>
		</contour>
	</outline>
</glyph>
<glyph name="ampersand" format="2">
	<advance width="522"/>
	<unicode hex="0026"/>
	<outline>
		<contour>
			<point x="209" y="-4" type="curve" smooth="yes"/>
			<point x="314" y="-4"/>
			<point x="385" y="80"/>
			<point x="453" y="199" type="curve" smooth="yes"/>
			<point x="468" y="225"/>
			<point x="461" y="250"/>
			<point x="433" y="266" type="curve" smooth="yes"/>
			<point x="412" y="279"/>
			<point x="381" y="270"/>
			<point x="365" y="243" type="curve" smooth="yes"/>
			<point x="301" y="134"/>
			<point x="265" y="87"/>
			<point x="211" y="87" type="curve" smooth="yes"/>
			<point x="165" y="87"/>
			<point x="128" y="115"/>
			<point x="123" y="156" type="curve" smooth="yes"/>
			<point x="117" y="203"/>
			<point x="152" y="264"/>
			<point x="224" y="318" type="curve" smooth="yes"/>
			<point x="244" y="333" type="line" smooth="yes"/>
			<point x="379" y="434"/>
			<point x="417" y="484"/>
			<point x="417" y="555" type="curve" smooth="yes"/>
			<point x="417" y="614"/>
			<point x="361" y="649"/>
			<point x="273" y="649" type="curve" smooth="yes"/>
			<point x="165" y="649"/>
			<point x="81" y="579"/>
			<point x="81" y="504" type="curve" smooth="yes"/>
			<point x="81" y="457"/>
			<point x="107" y="422"/>
			<point x="125" y="393" type="curve" smooth="yes"/>
			<point x="361" y="28" type="line" smooth="yes"/>
			<point x="376" y="5"/>
			<point x="416" y="-9"/>
			<point x="443" y="10" type="curve" smooth="yes"/>
			<point x="473" y="32"/>
			<point x="467" y="60"/>
			<point x="451" y="84" type="curve" smooth="yes"/>
			<point x="258" y="371" type="line" smooth="yes"/>
			<point x="224" y="421"/>
			<point x="184" y="480"/>
			<point x="183" y="505" type="curve" smooth="yes"/>
			<point x="183" y="527"/>
			<point x="215" y="560"/>
			<point x="258" y="560" type="curve" smooth="yes"/>
			<point x="297" y="560"/>
			<point x="306" y="549"/>
			<point x="310" y="534" type="curve" smooth="yes"/>
			<point x="318" y="506"/>
			<point x="283" y="462"/>
			<point x="201" y="408" type="curve" smooth="yes"/>
			<point x="166" y="385" type="line" smooth="yes"/>
			<point x="89" y="335"/>
			<point x="11" y="250"/>
			<point x="23" y="138" type="curve" smooth="yes"/>
			<point x="33" y="45"/>
			<point x="112" y="-4"/>
		</contour>
	</outline>
</glyph>
<glyph name="quotesingle" format="2">
	<advance width="261"/>
	<unicode hex="0027"/>
	<outline>
		<contour>
			<point x="138" y="456" type="curve" smooth="yes"/>
			<point x="160" y="456"/>
			<point x="186" y="470"/>
			<point x="188" y="496" type="curve" smooth="yes"/>
			<point x="198" y="595" type="line" smooth="yes"/>
			<point x="201" y="629"/>
			<point x="175" y="650"/>
			<point x="147" y="650" type="curve" smooth="yes"/>
			<point x="124" y="650"/>
			<point x="99" y="635"/>
			<point x="96" y="610" type="curve" smooth="yes"/>
			<point x="86" y="510" type="line" smooth="yes"/>
			<point x="82" y="472"/>
			<point x="114" y="456"/>
		</contour>
	</outline>
</glyph>
<glyph name="parenleft" format="2">
	<advance width="360"/>
	<unicode hex="0028"/>
	<outline>
		<contour>
			<point x="249" y="-295" type="curve" smooth="yes"/>
			<point x="263" y="-283"/>
			<point x="266" y="-264"/>
			<point x="252" y="-235" type="curve"/>
			<point x="160" y="-66"/>
			<point x="137" y="80"/>
			<point x="152" y="213" type="curve" smooth="yes"/>
			<point x="165" y="333"/>
			<point x="226" y="456"/>
			<point x="336" y="574" type="curve" smooth="yes"/>
			<point x="365" y="605"/>
			<point x="358" y="628"/>
			<point x="343" y="643" type="curve" smooth="yes"/>
			<point x="327" y="658"/>
			<point x="294" y="659"/>
			<point x="265" y="631" type="curve" smooth="yes"/>
			<point x="142" y="505"/>
			<point x="60" y="330"/>
			<point x="48" y="221" type="curve" smooth="yes"/>
			<point x="31" y="64"/>
			<point x="71" y="-112"/>
			<point x="175" y="-275" type="curve" smooth="yes"/>
			<point x="193" y="-304"/>
			<point x="229" y="-310"/>
		</contour>
	</outline>
</glyph>
<glyph name="parenright" format="2">
	<advance width="360"/>
	<unicode hex="0029"/>
	<outline>
		<contour>
			<point x="66" y="-270" type="curve" smooth="yes"/>
			<point x="202" y="-132"/>
			<point x="282" y="41"/>
			<point x="294" y="164" type="curve" smooth="yes"/>
			<point x="307" y="299"/>
			<point x="270" y="480"/>
			<point x="171" y="631" type="curve" smooth="yes"/>
			<point x="146" y="669"/>
			<point x="118" y="679"/>
			<point x="96" y="669" type="curve" smooth="yes"/>
			<point x="79" y="660"/>
			<point x="68" y="640"/>
			<point x="88" y="601" type="curve" smooth="yes"/>
			<point x="170" y="448"/>
			<point x="203" y="309"/>
			<point x="191" y="190" type="curve" smooth="yes"/>
			<point x="177" y="56"/>
			<point x="125" y="-76"/>
			<point x="2" y="-207" type="curve" smooth="yes"/>
			<point x="-16" y="-225"/>
			<point x="-25" y="-249"/>
			<point x="-8" y="-267" type="curve" smooth="yes"/>
			<point x="9" y="-289"/>
			<point x="46" y="-291"/>
		</contour>
	</outline>
</glyph>
<glyph name="asterisk" format="2">
	<advance width="373"/>
	<unicode hex="002A"/>
	<outline>
		<contour>
			<point x="79" y="437" type="curve" smooth="yes"/>
			<point x="91" y="418"/>
			<point x="122" y="411"/>
			<point x="148" y="428" type="curve" smooth="yes"/>
			<point x="313" y="535" type="line" smooth="yes"/>
			<point x="338" y="551"/>
			<point x="346" y="575"/>
			<point x="330" y="598" type="curve" smooth="yes"/>
			<point x="318" y="614"/>
			<point x="288" y="621"/>
			<point x="265" y="606" type="curve" smooth="yes"/>
			<point x="96" y="497" type="line"/>
			<point x="75" y="481"/>
			<point x="65" y="458"/>
		</contour>
		<contour>
			<point x="334" y="430" type="curve" smooth="yes"/>
			<point x="346" y="448"/>
			<point x="342" y="470"/>
			<point x="319" y="487" type="curve" smooth="yes"/>
			<point x="155" y="608" type="line" smooth="yes"/>
			<point x="132" y="625"/>
			<point x="103" y="621"/>
			<point x="91" y="604" type="curve" smooth="yes"/>
			<point x="77" y="586"/>
			<point x="81" y="563"/>
			<point x="106" y="545" type="curve" smooth="yes"/>
			<point x="267" y="426" type="line"/>
			<point x="293" y="409"/>
			<point x="322" y="413"/>
		</contour>
		<contour>
			<point x="188" y="373" type="curve" smooth="yes"/>
			<point x="210" y="368"/>
			<point x="238" y="385"/>
			<point x="241" y="416" type="curve" smooth="yes"/>
			<point x="263" y="615" type="line" smooth="yes"/>
			<point x="267" y="647"/>
			<point x="244" y="667"/>
			<point x="220" y="667" type="curve" smooth="yes"/>
			<point x="199" y="667"/>
			<point x="177" y="650"/>
			<point x="174" y="623" type="curve" smooth="yes"/>
			<point x="152" y="424" type="line" smooth="yes"/>
			<point x="149" y="395"/>
			<point x="167" y="378"/>
		</contour>
	</outline>
</glyph>
<glyph name="hyphen" format="2">
  <advance width="373"/>
  <unicode hex="002D"/>
  <outline>
    <contour>
      <point x="101" y="153" type="curve" smooth="yes"/>
      <point x="249" y="153" type="line" smooth="yes"/>
      <point x="280" y="153"/>
      <point x="297" y="173"/>
      <point x="298" y="198" type="curve" smooth="yes"/>
      <point x="299" y="222"/>
      <point x="274" y="242"/>
      <point x="243" y="242" type="curve" smooth="yes"/>
      <point x="95" y="242" type="line" smooth="yes"/>
      <point x="62" y="242"/>
      <point x="46" y="220"/>
      <point x="46" y="194" type="curve" smooth="yes"/>
      <point x="46" y="171"/>
      <point x="72" y="153"/>
    </contour>
  </outline>
</glyph>
<glyph name="period" format="2">
	<advance width="231"/>
	<unicode hex="002E"/>
	<outline>
		<contour>
			<point x="87" y="-12" type="curve" smooth="yes"/>
			<point x="116" y="-12"/>
			<point x="142" y="14"/>
			<point x="142" y="44" type="curve" smooth="yes"/>
			<point x="142" y="73"/>
			<point x="116" y="98"/>
			<point x="87" y="98" type="curve" smooth="yes"/>
			<point x="56" y="98"/>
			<point x="32" y="73"/>
			<point x="32" y="44" type="curve" smooth="yes"/>
			<point x="32" y="15"/>
			<point x="56" y="-12"/>
		</contour>
	</outline>
</glyph>
<glyph name="slash" format="2">
  <advance width="406"/>
  <unicode hex="002F"/>
  <outline>
    <contour>
      <point x="85" y="-52" type="curve" smooth="yes"/>
      <point x="104" y="-52"/>
      <point x="126" y="-42"/>
      <point x="134" y="-20" type="curve" smooth="yes"/>
      <point x="356" y="588" type="line" smooth="yes"/>
      <point x="369" y="624"/>
      <point x="337" y="650"/>
      <point x="307" y="650" type="curve" smooth="yes"/>
      <point x="287" y="650"/>
      <point x="265" y="639"/>
      <point x="256" y="614" type="curve" smooth="yes"/>
      <point x="35" y="8" type="line" smooth="yes"/>
      <point x="22" y="-27"/>
      <point x="53" y="-52"/>
    </contour>
  </outline>
</glyph>
<glyph name="zero" format="2">
	<advance width="496"/>
	<unicode hex="0030"/>
	<outline>
		<contour>
			<point x="214" y="-4" type="curve" smooth="yes"/>
			<point x="353" y="-4"/>
			<point x="433" y="122"/>
			<point x="453" y="300" type="curve" smooth="yes"/>
			<point x="465" y="408"/>
			<point x="436" y="567"/>
			<point x="270" y="567" type="curve" smooth="yes"/>
			<point x="111" y="567"/>
			<point x="50" y="430"/>
			<point x="30" y="252" type="curve" smooth="yes"/>
			<point x="14" y="117"/>
			<point x="76" y="-4"/>
		</contour>
		<contour>
			<point x="223" y="86" type="curve" smooth="yes"/>
			<point x="158" y="86"/>
			<point x="119" y="138"/>
			<point x="130" y="248" type="curve" smooth="yes"/>
			<point x="140" y="339"/>
			<point x="151" y="477"/>
			<point x="261" y="477" type="curve" smooth="yes"/>
			<point x="352" y="477"/>
			<point x="360" y="372"/>
			<point x="351" y="287" type="curve" smooth="yes"/>
			<point x="340" y="183"/>
			<point x="306" y="86"/>
		</contour>
	</outline>
</glyph>
<glyph name="one" format="2">
	<advance width="243"/>
	<unicode hex="0031"/>
	<outline>
		<contour>
			<point x="95" y="0" type="curve" smooth="yes"/>
			<point x="124" y="0"/>
			<point x="145" y="18"/>
			<point x="149" y="51" type="curve" smooth="yes"/>
			<point x="200" y="515" type="line" smooth="yes"/>
			<point x="203" y="543"/>
			<point x="188" y="568"/>
			<point x="153" y="568" type="curve" smooth="yes"/>
			<point x="123" y="568"/>
			<point x="103" y="547"/>
			<point x="100" y="520" type="curve" smooth="yes"/>
			<point x="49" y="57" type="line" smooth="yes"/>
			<point x="45" y="21"/>
			<point x="62" y="0"/>
		</contour>
	</outline>
</glyph>
<glyph name="two" format="2">
  <advance width="483"/>
  <unicode hex="0032"/>
  <outline>
    <contour>
      <point x="384.0" y="44" type="curve" smooth="yes"/>
      <point x="384" y="71"/>
      <point x="364" y="86"/>
      <point x="331" y="86" type="curve" smooth="yes"/>
      <point x="157" y="86" type="line"/>
      <point x="168" y="63" type="line"/>
      <point x="237" y="149"/>
      <point x="309" y="232"/>
      <point x="335" y="265" type="curve" smooth="yes"/>
      <point x="399" y="345"/>
      <point x="430" y="403"/>
      <point x="430" y="450" type="curve" smooth="yes"/>
      <point x="430" y="523"/>
      <point x="376" y="568"/>
      <point x="288" y="568" type="curve" smooth="yes"/>
      <point x="222" y="568"/>
      <point x="139" y="540"/>
      <point x="99" y="503" type="curve" smooth="yes"/>
      <point x="72" y="478"/>
      <point x="76" y="456"/>
      <point x="90" y="437" type="curve" smooth="yes"/>
      <point x="103" y="420"/>
      <point x="137" y="412"/>
      <point x="166" y="438" type="curve" smooth="yes"/>
      <point x="197" y="466"/>
      <point x="244" y="481"/>
      <point x="281" y="481" type="curve" smooth="yes"/>
      <point x="311" y="481"/>
      <point x="330" y="470"/>
      <point x="330" y="452" type="curve" smooth="yes"/>
      <point x="330" y="426"/>
      <point x="304" y="384"/>
      <point x="272" y="343" type="curve" smooth="yes"/>
      <point x="248" y="313"/>
      <point x="158" y="207"/>
      <point x="57" y="80" type="curve" smooth="yes"/>
      <point x="26" y="41"/>
      <point x="42" y="0.0"/>
      <point x="81" y="0" type="curve" smooth="yes"/>
      <point x="337" y="0" type="line" smooth="yes"/>
      <point x="366" y="0"/>
      <point x="384" y="18"/>
    </contour>
  </outline>
</glyph>
<glyph name="three" format="2">
	<advance width="417"/>
	<unicode hex="0033"/>
	<outline>
		<contour>
			<point x="-11" y="102" type="curve" smooth="yes"/>
			<point x="-24" y="81"/>
			<point x="-23" y="56"/>
			<point x="4" y="34" type="curve" smooth="yes"/>
			<point x="25" y="17"/>
			<point x="64" y="-4"/>
			<point x="133" y="-4" type="curve" smooth="yes"/>
			<point x="222" y="-4"/>
			<point x="351" y="46"/>
			<point x="363" y="161" type="curve" smooth="yes"/>
			<point x="375" y="273"/>
			<point x="289" y="337"/>
			<point x="207" y="345" type="curve" smooth="yes"/>
			<point x="111" y="354" type="line" smooth="yes"/>
			<point x="87" y="356"/>
			<point x="63" y="334"/>
			<point x="63" y="306" type="curve" smooth="yes"/>
			<point x="63" y="283"/>
			<point x="81" y="256"/>
			<point x="108" y="256" type="curve" smooth="yes"/>
			<point x="146" y="256"/>
			<point x="176" y="251"/>
			<point x="210" y="246" type="curve" smooth="yes"/>
			<point x="251" y="241"/>
			<point x="268" y="216"/>
			<point x="263" y="167" type="curve" smooth="yes"/>
			<point x="258" y="112"/>
			<point x="189" y="86"/>
			<point x="138" y="86" type="curve" smooth="yes"/>
			<point x="92" y="86"/>
			<point x="74" y="95"/>
			<point x="56" y="107" type="curve" smooth="yes"/>
			<point x="27" y="128"/>
			<point x="4" y="125"/>
		</contour>
		<contour>
			<point x="39" y="460" type="curve" smooth="yes"/>
			<point x="57" y="435"/>
			<point x="84" y="439"/>
			<point x="108" y="458" type="curve" smooth="yes"/>
			<point x="126" y="470"/>
			<point x="142" y="477"/>
			<point x="196" y="477" type="curve" smooth="yes"/>
			<point x="246" y="477"/>
			<point x="272" y="460"/>
			<point x="267" y="422" type="curve" smooth="yes"/>
			<point x="264" y="387"/>
			<point x="242" y="369"/>
			<point x="210" y="364" type="curve" smooth="yes"/>
			<point x="168" y="358"/>
			<point x="133" y="354"/>
			<point x="111" y="354" type="curve"/>
			<point x="108" y="256" type="line"/>
			<point x="207" y="265" type="line" smooth="yes"/>
			<point x="284" y="272"/>
			<point x="357" y="323"/>
			<point x="367" y="415" type="curve" smooth="yes"/>
			<point x="378" y="519"/>
			<point x="280" y="567"/>
			<point x="197" y="567" type="curve" smooth="yes"/>
			<point x="120" y="567"/>
			<point x="74" y="546"/>
			<point x="53" y="529" type="curve" smooth="yes"/>
			<point x="26" y="507"/>
			<point x="25" y="482"/>
		</contour>
	</outline>
</glyph>
<glyph name="four" format="2">
  <advance width="500"/>
  <unicode hex="0034"/>
  <outline>
    <contour>
      <point x="152" y="215" type="line"/>
      <point x="184" y="519" type="line" smooth="yes"/>
      <point x="187" y="551"/>
      <point x="162" y="568"/>
      <point x="137" y="568" type="curve" smooth="yes"/>
      <point x="113" y="568"/>
      <point x="88" y="555"/>
      <point x="85" y="527" type="curve" smooth="yes"/>
      <point x="53" y="221" type="line" smooth="yes"/>
      <point x="50" y="196"/>
      <point x="72" y="173"/>
      <point x="104" y="173" type="curve"/>
    </contour>
    <contour>
      <point x="237" y="0" type="curve" smooth="yes"/>
      <point x="269" y="0"/>
      <point x="286" y="16"/>
      <point x="289" y="44" type="curve" smooth="yes"/>
      <point x="317" y="350" type="line" smooth="yes"/>
      <point x="320" y="379"/>
      <point x="305" y="401"/>
      <point x="278" y="402" type="curve" smooth="yes"/>
      <point x="250" y="403"/>
      <point x="228" y="391"/>
      <point x="225" y="363" type="curve" smooth="yes"/>
      <point x="195" y="59" type="line" smooth="yes"/>
      <point x="192" y="26"/>
      <point x="206" y="0"/>
    </contour>
    <contour>
      <point x="104" y="173" type="line"/>
      <point x="397" y="173" type="line" smooth="yes"/>
      <point x="425" y="173"/>
      <point x="442" y="193"/>
      <point x="443" y="219" type="curve" smooth="yes"/>
      <point x="444" y="243"/>
      <point x="426" y="263"/>
      <point x="398" y="263" type="curve" smooth="yes"/>
      <point x="144" y="263" type="line"/>
    </contour>
  </outline>
</glyph>
<glyph name="five" format="2">
  <advance width="485"/>
  <unicode hex="0035"/>
  <outline>
    <contour>
      <point x="200.0" y="-1.0" type="curve" smooth="yes"/>
      <point x="322" y="-1"/>
      <point x="405" y="76"/>
      <point x="405" y="200" type="curve" smooth="yes"/>
      <point x="405" y="306"/>
      <point x="349" y="359"/>
      <point x="239" y="359" type="curve" smooth="yes"/>
      <point x="207" y="359"/>
      <point x="195" y="355"/>
      <point x="156" y="345" type="curve"/>
      <point x="180" y="327" type="line"/>
      <point x="203" y="514" type="line"/>
      <point x="170" y="483" type="line"/>
      <point x="388" y="483" type="line" smooth="yes"/>
      <point x="420" y="483"/>
      <point x="433" y="502"/>
      <point x="434" y="526" type="curve" smooth="yes"/>
      <point x="435" y="553"/>
      <point x="412" y="568"/>
      <point x="382" y="568" type="curve" smooth="yes"/>
      <point x="171" y="568" type="line" smooth="yes"/>
      <point x="128" y="568"/>
      <point x="107" y="552"/>
      <point x="103" y="521" type="curve" smooth="yes"/>
      <point x="79" y="309" type="line" smooth="yes"/>
      <point x="75" y="273"/>
      <point x="100" y="253"/>
      <point x="139" y="262" type="curve" smooth="yes"/>
      <point x="168" y="269"/>
      <point x="185" y="273"/>
      <point x="221" y="273" type="curve" smooth="yes"/>
      <point x="276" y="273"/>
      <point x="304" y="246"/>
      <point x="304" y="193" type="curve" smooth="yes"/>
      <point x="304" y="126"/>
      <point x="264" y="85"/>
      <point x="211.0" y="85.0" type="curve" smooth="yes"/>
      <point x="177" y="85"/>
      <point x="143" y="96"/>
      <point x="120" y="111" type="curve" smooth="yes"/>
      <point x="108" y="119"/>
      <point x="94" y="128"/>
      <point x="81" y="128" type="curve" smooth="yes"/>
      <point x="60" y="128"/>
      <point x="40" y="115"/>
      <point x="40" y="90" type="curve" smooth="yes"/>
      <point x="40" y="76"/>
      <point x="48" y="63"/>
      <point x="63" y="49" type="curve" smooth="yes"/>
      <point x="94" y="20"/>
      <point x="148" y="-1"/>
    </contour>
  </outline>
</glyph>
<glyph name="six" format="2">
  <advance width="476"/>
  <unicode hex="0036"/>
  <outline>
    <contour>
      <point x="53" y="66"/>
      <point x="113" y="-1"/>
      <point x="211" y="-1" type="curve" smooth="yes"/>
      <point x="321" y="-1"/>
      <point x="391" y="75"/>
      <point x="396" y="198" type="curve" smooth="yes"/>
      <point x="400" y="298"/>
      <point x="348" y="360"/>
      <point x="261" y="360" type="curve" smooth="yes"/>
      <point x="189" y="360"/>
      <point x="131" y="303"/>
      <point x="131" y="226" type="curve"/>
      <point x="150" y="175" type="line"/>
      <point x="150" y="229"/>
      <point x="186" y="270"/>
      <point x="235" y="270" type="curve" smooth="yes"/>
      <point x="274" y="270"/>
      <point x="297" y="238"/>
      <point x="296" y="186" type="curve" smooth="yes"/>
      <point x="294" y="126"/>
      <point x="263" y="89"/>
      <point x="216" y="89" type="curve" smooth="yes"/>
      <point x="175" y="89"/>
      <point x="150" y="122"/>
      <point x="150" y="175" type="curve" smooth="yes"/>
      <point x="150" y="363"/>
      <point x="200" y="479"/>
      <point x="281" y="479" type="curve" smooth="yes"/>
      <point x="301" y="479"/>
      <point x="320" y="471"/>
      <point x="334" y="460" type="curve" smooth="yes"/>
      <point x="366" y="435"/>
      <point x="382" y="432"/>
      <point x="405" y="455" type="curve" smooth="yes"/>
      <point x="426" y="476"/>
      <point x="426" y="498"/>
      <point x="402" y="519" type="curve" smooth="yes"/>
      <point x="365" y="552"/>
      <point x="326" y="568"/>
      <point x="287" y="568" type="curve" smooth="yes"/>
      <point x="142" y="568"/>
      <point x="53" y="418"/>
      <point x="53" y="174" type="curve" smooth="yes"/>
    </contour>
  </outline>
</glyph>
<glyph name="seven" format="2">
  <advance width="459"/>
  <unicode hex="0037"/>
  <outline>
    <contour>
      <point x="131" y="0" type="curve" smooth="yes"/>
      <point x="154" y="0"/>
      <point x="174" y="18"/>
      <point x="186" y="42" type="curve" smooth="yes"/>
      <point x="407" y="503" type="line" smooth="yes"/>
      <point x="424" y="538"/>
      <point x="407.0" y="568.0"/>
      <point x="365" y="568" type="curve" smooth="yes"/>
      <point x="132" y="568" type="line" smooth="yes"/>
      <point x="102" y="568"/>
      <point x="84" y="546"/>
      <point x="85" y="522" type="curve" smooth="yes"/>
      <point x="86" y="498"/>
      <point x="108" y="478"/>
      <point x="138" y="478" type="curve" smooth="yes"/>
      <point x="314" y="478" type="line"/>
      <point x="297" y="505" type="line"/>
      <point x="93" y="75" type="line" smooth="yes"/>
      <point x="70" y="27"/>
      <point x="104" y="0"/>
    </contour>
  </outline>
</glyph>
<glyph name="eight" format="2">
	<advance width="393"/>
	<unicode hex="0038"/>
	<outline>
		<contour>
			<point x="178" y="81" type="curve" smooth="yes"/>
			<point x="145" y="81"/>
			<point x="117" y="108"/>
			<point x="117" y="148" type="curve" smooth="yes"/>
			<point x="117" y="177"/>
			<point x="137" y="219"/>
			<point x="230" y="287" type="curve" smooth="yes"/>
			<point x="308" y="344"/>
			<point x="377" y="399"/>
			<point x="377" y="472" type="curve" smooth="yes"/>
			<point x="377" y="539"/>
			<point x="292" y="568"/>
			<point x="220" y="568" type="curve" smooth="yes"/>
			<point x="143" y="568"/>
			<point x="60" y="526"/>
			<point x="60" y="428" type="curve" smooth="yes"/>
			<point x="60" y="355"/>
			<point x="124" y="311"/>
			<point x="146" y="289" type="curve" smooth="yes"/>
			<point x="165" y="270" type="line" smooth="yes"/>
			<point x="201" y="234"/>
			<point x="248" y="190"/>
			<point x="248" y="147" type="curve" smooth="yes"/>
			<point x="248" y="113"/>
			<point x="219" y="81"/>
		</contour>
		<contour>
			<point x="179" y="-4" type="curve" smooth="yes"/>
			<point x="294" y="-4"/>
			<point x="343" y="86"/>
			<point x="343" y="156" type="curve" smooth="yes"/>
			<point x="343" y="218"/>
			<point x="289" y="275"/>
			<point x="238" y="322" type="curve" smooth="yes"/>
			<point x="213" y="345" type="line" smooth="yes"/>
			<point x="185" y="371"/>
			<point x="152" y="397"/>
			<point x="152" y="433" type="curve" smooth="yes"/>
			<point x="152" y="470"/>
			<point x="189" y="488"/>
			<point x="224" y="488" type="curve" smooth="yes"/>
			<point x="256" y="488"/>
			<point x="284" y="483"/>
			<point x="284" y="463" type="curve" smooth="yes"/>
			<point x="284" y="443"/>
			<point x="224" y="391"/>
			<point x="167" y="352" type="curve" smooth="yes"/>
			<point x="63" y="281"/>
			<point x="22" y="204"/>
			<point x="22" y="148" type="curve" smooth="yes"/>
			<point x="22" y="87"/>
			<point x="68" y="-4"/>
		</contour>
	</outline>
</glyph>
<glyph name="nine" format="2">
	<advance width="389"/>
	<unicode hex="0039"/>
	<outline>
		<contour>
			<point x="246" y="0" type="curve" smooth="yes"/>
			<point x="276" y="0"/>
			<point x="296" y="21"/>
			<point x="299" y="48" type="curve" smooth="yes"/>
			<point x="349" y="511" type="line" smooth="yes"/>
			<point x="353" y="547"/>
			<point x="336" y="568"/>
			<point x="303" y="568" type="curve" smooth="yes"/>
			<point x="274" y="568"/>
			<point x="252" y="544"/>
			<point x="248" y="511" type="curve" smooth="yes"/>
			<point x="199" y="53" type="line" smooth="yes"/>
			<point x="196" y="25"/>
			<point x="211" y="0"/>
		</contour>
		<contour>
			<point x="160" y="214" type="curve" smooth="yes"/>
			<point x="213" y="214"/>
			<point x="257" y="282"/>
			<point x="279" y="330" type="curve"/>
			<point x="297" y="484" type="line"/>
			<point x="241" y="484" type="line"/>
			<point x="236" y="458"/>
			<point x="235" y="436"/>
			<point x="234" y="430" type="curve" smooth="yes"/>
			<point x="216" y="330"/>
			<point x="185" y="304"/>
			<point x="161" y="304" type="curve" smooth="yes"/>
			<point x="138" y="304"/>
			<point x="126" y="340"/>
			<point x="132" y="392" type="curve" smooth="yes"/>
			<point x="139" y="457"/>
			<point x="161" y="482"/>
			<point x="191" y="482" type="curve" smooth="yes"/>
			<point x="220" y="482"/>
			<point x="235" y="478"/>
			<point x="286" y="400" type="curve"/>
			<point x="299" y="512" type="line"/>
			<point x="268" y="539"/>
			<point x="227" y="572"/>
			<point x="192" y="572" type="curve" smooth="yes"/>
			<point x="114" y="572"/>
			<point x="45" y="515"/>
			<point x="32" y="400" type="curve" smooth="yes"/>
			<point x="23" y="312"/>
			<point x="64" y="214"/>
		</contour>
	</outline>
</glyph>
<glyph name="colon" format="2">
	<advance width="221"/>
	<unicode hex="003A"/>
	<outline>
		<contour>
			<point x="78" y="-8" type="curve" smooth="yes"/>
			<point x="108" y="-8"/>
			<point x="134" y="17"/>
			<point x="134" y="47" type="curve" smooth="yes"/>
			<point x="134" y="77"/>
			<point x="108" y="101"/>
			<point x="78" y="102" type="curve" smooth="yes"/>
			<point x="47" y="102"/>
			<point x="24" y="77"/>
			<point x="24" y="48" type="curve" smooth="yes"/>
			<point x="24" y="19"/>
			<point x="47" y="-7"/>
		</contour>
		<contour>
			<point x="105" y="240" type="curve" smooth="yes"/>
			<point x="135" y="240"/>
			<point x="161" y="266"/>
			<point x="161" y="296" type="curve" smooth="yes"/>
			<point x="161" y="325"/>
			<point x="135" y="349"/>
			<point x="106" y="350" type="curve" smooth="yes"/>
			<point x="75" y="350"/>
			<point x="51" y="324"/>
			<point x="51" y="296" type="curve" smooth="yes"/>
			<point x="51" y="268"/>
			<point x="75" y="241"/>
		</contour>
	</outline>
</glyph>
<glyph name="semicolon" format="2">
	<advance width="228"/>
	<unicode hex="003B"/>
	<outline>
		<contour>
			<point x="76" y="-102" type="curve" smooth="yes"/>
			<point x="99" y="-104"/>
			<point x="124" y="-89"/>
			<point x="127" y="-60" type="curve" smooth="yes"/>
			<point x="138" y="39" type="line" smooth="yes"/>
			<point x="142" y="71"/>
			<point x="119" y="91"/>
			<point x="91" y="94" type="curve" smooth="yes"/>
			<point x="66" y="97"/>
			<point x="40" y="83"/>
			<point x="37" y="54" type="curve" smooth="yes"/>
			<point x="27" y="-45" type="line" smooth="yes"/>
			<point x="24" y="-78"/>
			<point x="49" y="-100"/>
		</contour>
		<contour>
			<point x="114" y="239" type="curve" smooth="yes"/>
			<point x="144" y="239"/>
			<point x="169" y="266"/>
			<point x="169" y="296" type="curve" smooth="yes"/>
			<point x="169" y="325"/>
			<point x="143" y="350"/>
			<point x="114" y="350" type="curve" smooth="yes"/>
			<point x="83" y="350"/>
			<point x="59" y="324"/>
			<point x="59" y="296" type="curve" smooth="yes"/>
			<point x="59" y="268"/>
			<point x="84" y="239"/>
		</contour>
	</outline>
</glyph>
<glyph name="less" format="2">
  <advance width="412"/>
  <unicode hex="003C"/>
  <outline>
    <contour>
      <point x="279" y="106" type="line" smooth="yes"/>
      <point x="301.0" y="93.0"/>
      <point x="328.0" y="94.0"/>
      <point x="342" y="108" type="curve" smooth="yes"/>
      <point x="361.0" y="126.0"/>
      <point x="361.00000000000006" y="157.0"/>
      <point x="332" y="174" type="curve" smooth="yes"/>
      <point x="187" y="259" type="line"/>
      <point x="182" y="217" type="line"/>
      <point x="368" y="286" type="line" smooth="yes"/>
      <point x="404.0" y="299.0"/>
      <point x="404.0" y="320.0"/>
      <point x="399" y="339" type="curve" smooth="yes"/>
      <point x="394.0" y="358.0"/>
      <point x="377.0" y="381.00000000000006"/>
      <point x="339" y="366" type="curve" smooth="yes"/>
      <point x="119" y="282" type="line" smooth="yes"/>
      <point x="103.0" y="276.0"/>
      <point x="93.0" y="258.0"/>
      <point x="93" y="243" type="curve" smooth="yes"/>
      <point x="93.0" y="231.0"/>
      <point x="95.00000000000001" y="218.00000000000003"/>
      <point x="110" y="209" type="curve" smooth="yes"/>
    </contour>
  </outline>
</glyph>
<glyph name="equal" format="2">
	<advance width="441"/>
	<unicode hex="003D"/>
	<outline>
		<contour>
			<point x="328" y="248" type="line" smooth="yes"/>
			<point x="358" y="248"/>
			<point x="377" y="266"/>
			<point x="376" y="290" type="curve" smooth="yes"/>
			<point x="374" y="314"/>
			<point x="352" y="333"/>
			<point x="322" y="333" type="curve" smooth="yes"/>
			<point x="104" y="333" type="line" smooth="yes"/>
			<point x="74" y="333"/>
			<point x="54" y="314"/>
			<point x="56" y="290" type="curve" smooth="yes"/>
			<point x="57" y="266"/>
			<point x="80" y="248"/>
			<point x="110" y="248" type="curve" smooth="yes"/>
		</contour>
		<contour>
			<point x="312" y="97" type="line" smooth="yes"/>
			<point x="342" y="97"/>
			<point x="362" y="116"/>
			<point x="360" y="141" type="curve" smooth="yes"/>
			<point x="358" y="165"/>
			<point x="336" y="182"/>
			<point x="306" y="182" type="curve" smooth="yes"/>
			<point x="88" y="182" type="line" smooth="yes"/>
			<point x="58" y="182"/>
			<point x="38" y="165"/>
			<point x="40" y="141" type="curve" smooth="yes"/>
			<point x="42" y="117"/>
			<point x="64" y="97"/>
			<point x="94" y="97" type="curve" smooth="yes"/>
		</contour>
	</outline>
</glyph>
<glyph name="greater" format="2">
	<advance width="418"/>
	<unicode hex="003E"/>
	<outline>
		<contour>
			<point x="321" y="162" type="line"/>
			<point x="283" y="245" type="line"/>
			<point x="66" y="127" type="line" smooth="yes"/>
			<point x="37" y="112"/>
			<point x="31" y="92"/>
			<point x="38" y="70" type="curve" smooth="yes"/>
			<point x="47" y="46"/>
			<point x="79" y="29"/>
			<point x="108" y="45" type="curve" smooth="yes"/>
		</contour>
		<contour>
			<point x="265" y="164" type="line"/>
			<point x="290" y="147"/>
			<point x="321" y="153"/>
			<point x="333" y="176" type="curve" smooth="yes"/>
			<point x="344" y="198"/>
			<point x="340" y="218"/>
			<point x="314" y="235" type="curve" smooth="yes"/>
			<point x="135" y="344" type="line" smooth="yes"/>
			<point x="109" y="359"/>
			<point x="80" y="355"/>
			<point x="67" y="337" type="curve" smooth="yes"/>
			<point x="53" y="315"/>
			<point x="60" y="291"/>
			<point x="86" y="272" type="curve"/>
		</contour>
	</outline>
</glyph>
<glyph name="question" format="2">
  <advance width="486"/>
  <unicode hex="003F"/>
  <outline>
    <contour>
      <point x="183" y="176" type="curve" smooth="yes"/>
      <point x="209" y="171"/>
      <point x="231" y="193"/>
      <point x="235" y="225" type="curve" smooth="yes"/>
      <point x="240" y="268" type="line"/>
      <point x="370" y="281"/>
      <point x="424" y="371"/>
      <point x="436" y="477" type="curve" smooth="yes"/>
      <point x="448" y="578"/>
      <point x="378" y="650"/>
      <point x="271" y="650" type="curve" smooth="yes"/>
      <point x="173" y="650"/>
      <point x="92" y="585"/>
      <point x="82" y="493" type="curve" smooth="yes"/>
      <point x="77" y="458"/>
      <point x="99" y="434"/>
      <point x="130" y="434" type="curve" smooth="yes"/>
      <point x="149" y="434"/>
      <point x="174" y="443"/>
      <point x="177" y="476" type="curve" smooth="yes"/>
      <point x="181" y="527"/>
      <point x="219" y="561"/>
      <point x="265" y="561" type="curve" smooth="yes"/>
      <point x="314" y="561"/>
      <point x="346" y="530"/>
      <point x="341" y="482" type="curve" smooth="yes"/>
      <point x="339" y="459"/>
      <point x="329" y="355"/>
      <point x="194" y="356" type="curve"/>
      <point x="173" y="356"/>
      <point x="152" y="342"/>
      <point x="150" y="321" type="curve" smooth="yes"/>
      <point x="140" y="233" type="line" smooth="yes"/>
      <point x="137" y="207"/>
      <point x="153" y="182"/>
    </contour>
    <contour>
      <point x="163" y="-1" type="curve" smooth="yes"/>
      <point x="195" y="-1"/>
      <point x="223" y="27"/>
      <point x="224" y="57" type="curve" smooth="yes"/>
      <point x="225" y="88"/>
      <point x="196" y="116"/>
      <point x="164" y="116" type="curve" smooth="yes"/>
      <point x="131" y="116"/>
      <point x="107" y="86"/>
      <point x="107" y="57" type="curve" smooth="yes"/>
      <point x="107" y="29"/>
      <point x="130" y="-1"/>
    </contour>
  </outline>
</glyph>
<glyph name="at" format="2">
  <advance width="720"/>
  <unicode hex="0040"/>
  <outline>
    <contour>
      <point x="286" y="49" type="curve" smooth="yes"/>
      <point x="352" y="49"/>
      <point x="383" y="124"/>
      <point x="411" y="229" type="curve" smooth="yes"/>
      <point x="440" y="337"/>
      <point x="444" y="408"/>
      <point x="375" y="408" type="curve" smooth="yes"/>
      <point x="298" y="408"/>
      <point x="226" y="341"/>
      <point x="199" y="233" type="curve" smooth="yes"/>
      <point x="171" y="119"/>
      <point x="206" y="49"/>
    </contour>
    <contour>
      <point x="307" y="139" type="curve" smooth="yes"/>
      <point x="286" y="139"/>
      <point x="280" y="167"/>
      <point x="292" y="213" type="curve" smooth="yes"/>
      <point x="308" y="278"/>
      <point x="339" y="318"/>
      <point x="373" y="318" type="curve" smooth="yes"/>
      <point x="393" y="318"/>
      <point x="399" y="292"/>
      <point x="388" y="249" type="curve" smooth="yes"/>
      <point x="371" y="181"/>
      <point x="340" y="139"/>
    </contour>
    <contour>
      <point x="281" y="-120" type="curve" smooth="yes"/>
      <point x="311" y="-120"/>
      <point x="369" y="-111"/>
      <point x="417" y="-98" type="curve" smooth="yes"/>
      <point x="454" y="-88"/>
      <point x="471" y="-64"/>
      <point x="462" y="-33" type="curve" smooth="yes"/>
      <point x="453" y="-4"/>
      <point x="423" y="6"/>
      <point x="382" y="-8" type="curve" smooth="yes"/>
      <point x="352" y="-18"/>
      <point x="308" y="-25"/>
      <point x="279" y="-25" type="curve" smooth="yes"/>
      <point x="158" y="-25"/>
      <point x="94" y="78"/>
      <point x="128" y="215" type="curve" smooth="yes"/>
      <point x="171" y="384"/>
      <point x="279" y="489"/>
      <point x="411" y="489" type="curve" smooth="yes"/>
      <point x="528" y="489"/>
      <point x="592" y="395"/>
      <point x="563" y="268" type="curve" smooth="yes"/>
      <point x="545" y="192"/>
      <point x="503" y="136"/>
      <point x="472" y="136" type="curve" smooth="yes"/>
      <point x="457" y="136"/>
      <point x="462" y="164"/>
      <point x="466" y="179" type="curve" smooth="yes"/>
      <point x="510" y="354" type="line" smooth="yes"/>
      <point x="519" y="390"/>
      <point x="504" y="408"/>
      <point x="472" y="408" type="curve" smooth="yes"/>
      <point x="442" y="408"/>
      <point x="426" y="397"/>
      <point x="419" y="369" type="curve" smooth="yes"/>
      <point x="376" y="200" type="line" smooth="yes"/>
      <point x="345" y="80"/>
      <point x="388" y="49"/>
      <point x="440" y="49" type="curve"/>
      <point x="539" y="49"/>
      <point x="634" y="137"/>
      <point x="663" y="254" type="curve" smooth="yes"/>
      <point x="711" y="443"/>
      <point x="604" y="584"/>
      <point x="414" y="584" type="curve" smooth="yes"/>
      <point x="230" y="584"/>
      <point x="83" y="453"/>
      <point x="30" y="240" type="curve" smooth="yes"/>
      <point x="-21" y="34"/>
      <point x="86" y="-120"/>
    </contour>
  </outline>
</glyph>
<glyph name="A" format="2">
  <advance width="473"/>
  <unicode hex="0041"/>
  <outline>
    <contour>
      <point x="17" y="2" type="curve" smooth="yes"/>
      <point x="40" y="-7"/>
      <point x="71" y="3"/>
      <point x="84" y="33" type="curve" smooth="yes"/>
      <point x="289" y="521" type="line"/>
      <point x="273" y="523" type="line"/>
      <point x="333" y="49" type="line" smooth="yes"/>
      <point x="338" y="12"/>
      <point x="358" y="-5"/>
      <point x="390" y="0" type="curve" smooth="yes"/>
      <point x="418" y="4"/>
      <point x="431" y="26"/>
      <point x="426" y="61" type="curve" smooth="yes"/>
      <point x="339" y="619" type="line" smooth="yes"/>
      <point x="336" y="639"/>
      <point x="319" y="650"/>
      <point x="291" y="650" type="curve" smooth="yes"/>
      <point x="260" y="650"/>
      <point x="251" y="639"/>
      <point x="241" y="616" type="curve" smooth="yes"/>
      <point x="-7" y="66" type="line" smooth="yes"/>
      <point x="-20" y="37"/>
      <point x="-6" y="11"/>
    </contour>
    <contour>
      <point x="132" y="247" type="line"/>
      <point x="345" y="247" type="line"/>
      <point x="334" y="327" type="line"/>
      <point x="166" y="327" type="line"/>
    </contour>
  </outline>
</glyph>
<glyph name="B" format="2">
  <advance width="540"/>
  <unicode hex="0042"/>
  <outline>
    <contour>
      <point x="95" y="0" type="curve" smooth="yes"/>
      <point x="333.0" y="0.0"/>
      <point x="485" y="69"/>
      <point x="498" y="182" type="curve" smooth="yes"/>
      <point x="511" y="308"/>
      <point x="376" y="377"/>
      <point x="129" y="360" type="curve"/>
      <point x="121" y="281" type="line"/>
      <point x="302" y="294"/>
      <point x="403" y="256"/>
      <point x="395" y="195" type="curve" smooth="yes"/>
      <point x="387" y="139"/>
      <point x="297" y="99"/>
      <point x="149" y="97" type="curve"/>
      <point x="198" y="559" type="line"/>
      <point x="331" y="568"/>
      <point x="404" y="519"/>
      <point x="398.0" y="465.0" type="curve" smooth="yes"/>
      <point x="392" y="411"/>
      <point x="357" y="368"/>
      <point x="136" y="361" type="curve"/>
      <point x="129" y="304" type="line"/>
      <point x="449" y="316"/>
      <point x="488" y="385"/>
      <point x="497" y="469" type="curve" smooth="yes"/>
      <point x="511" y="599"/>
      <point x="392.0" y="665.0"/>
      <point x="162" y="650" type="curve" smooth="yes"/>
      <point x="129" y="648"/>
      <point x="111" y="643"/>
      <point x="107" y="602" type="curve" smooth="yes"/>
      <point x="48" y="53" type="line" smooth="yes"/>
      <point x="45" y="23"/>
      <point x="65" y="0"/>
    </contour>
  </outline>
</glyph>
<glyph name="C" format="2">
  <advance width="512"/>
  <unicode hex="0043"/>
  <outline>
    <contour>
      <point x="221" y="-5" type="curve" smooth="yes"/>
      <point x="330" y="-5"/>
      <point x="413" y="55"/>
      <point x="447" y="116" type="curve" smooth="yes"/>
      <point x="470" y="158"/>
      <point x="455" y="191"/>
      <point x="430" y="204" type="curve" smooth="yes"/>
      <point x="405" y="217"/>
      <point x="382" y="207"/>
      <point x="370" y="181" type="curve" smooth="yes"/>
      <point x="347" y="132"/>
      <point x="299" y="83"/>
      <point x="222" y="83" type="curve" smooth="yes"/>
      <point x="147" y="83"/>
      <point x="117" y="163"/>
      <point x="138" y="331" type="curve" smooth="yes"/>
      <point x="156" y="477"/>
      <point x="217" y="565"/>
      <point x="325" y="565" type="curve" smooth="yes"/>
      <point x="364" y="565"/>
      <point x="405" y="536"/>
      <point x="426" y="521" type="curve" smooth="yes"/>
      <point x="448" y="506"/>
      <point x="473" y="509"/>
      <point x="489" y="537" type="curve" smooth="yes"/>
      <point x="506" y="567"/>
      <point x="493" y="597"/>
      <point x="475" y="610" type="curve" smooth="yes"/>
      <point x="450" y="629"/>
      <point x="379" y="655"/>
      <point x="318" y="655" type="curve" smooth="yes"/>
      <point x="162" y="655"/>
      <point x="67" y="546"/>
      <point x="37" y="343" type="curve" smooth="yes"/>
      <point x="6" y="132"/>
      <point x="68" y="-5"/>
    </contour>
  </outline>
</glyph>
<glyph name="D" format="2">
	<advance width="553"/>
	<unicode hex="0044"/>
	<outline>
		<contour>
			<point x="172" y="0" type="line" smooth="yes"/>
			<point x="365" y="0"/>
			<point x="491" y="129"/>
			<point x="513" y="336" type="curve" smooth="yes"/>
			<point x="532" y="523"/>
			<point x="418" y="650"/>
			<point x="226" y="650" type="curve" smooth="yes"/>
			<point x="155" y="650" type="line"/>
			<point x="146" y="562" type="line"/>
			<point x="215" y="562" type="line" smooth="yes"/>
			<point x="349" y="562"/>
			<point x="430" y="489"/>
			<point x="416" y="339" type="curve" smooth="yes"/>
			<point x="401" y="173"/>
			<point x="309" y="89"/>
			<point x="166" y="89" type="curve" smooth="yes"/>
			<point x="108" y="89" type="line"/>
			<point x="96" y="0" type="line"/>
		</contour>
		<contour>
			<point x="98" y="0" type="curve"/>
			<point x="148" y="41" type="line"/>
			<point x="207" y="600" type="line"/>
			<point x="157" y="650" type="line"/>
			<point x="125" y="650"/>
			<point x="110" y="636"/>
			<point x="107" y="609" type="curve" smooth="yes"/>
			<point x="48" y="49" type="line" smooth="yes"/>
			<point x="45" y="21"/>
			<point x="67" y="0"/>
		</contour>
	</outline>
</glyph>
<glyph name="E" format="2">
	<advance width="539"/>
	<unicode hex="0045"/>
	<outline>
		<contour>
			<point x="88" y="0" type="curve"/>
			<point x="147" y="40" type="line"/>
			<point x="206" y="597" type="line"/>
			<point x="158" y="650" type="line"/>
			<point x="127" y="650"/>
			<point x="110" y="639"/>
			<point x="107" y="611" type="curve" smooth="yes"/>
			<point x="48" y="50" type="line" smooth="yes"/>
			<point x="45" y="22"/>
			<point x="58" y="0"/>
		</contour>
		<contour>
			<point x="420" y="0" type="line" smooth="yes"/>
			<point x="450" y="0"/>
			<point x="467" y="26"/>
			<point x="467" y="52" type="curve" smooth="yes"/>
			<point x="467" y="76"/>
			<point x="448" y="95"/>
			<point x="416" y="95" type="curve" smooth="yes"/>
			<point x="139" y="95" type="line"/>
			<point x="88" y="0" type="line"/>
		</contour>
		<contour>
			<point x="159" y="288" type="line"/>
			<point x="423" y="288" type="line" smooth="yes"/>
			<point x="455" y="288"/>
			<point x="474" y="307"/>
			<point x="474" y="331" type="curve" smooth="yes"/>
			<point x="474" y="357"/>
			<point x="452" y="373"/>
			<point x="422" y="373" type="curve" smooth="yes"/>
			<point x="169" y="373" type="line"/>
		</contour>
		<contour>
			<point x="188" y="555" type="line"/>
			<point x="479" y="555" type="line" smooth="yes"/>
			<point x="509" y="555"/>
			<point x="527" y="580"/>
			<point x="527" y="606" type="curve" smooth="yes"/>
			<point x="527" y="631"/>
			<point x="506" y="650"/>
			<point x="475" y="650" type="curve" smooth="yes"/>
			<point x="163" y="650" type="line"/>
		</contour>
	</outline>
</glyph>
<glyph name="F" format="2">
	<advance width="543"/>
	<unicode hex="0046"/>
	<outline>
		<contour>
			<point x="87" y="0" type="curve" smooth="yes"/>
			<point x="128" y="0"/>
			<point x="145" y="21"/>
			<point x="148" y="51" type="curve"/>
			<point x="206" y="597" type="line"/>
			<point x="156" y="650" type="line"/>
			<point x="125" y="650"/>
			<point x="110" y="638"/>
			<point x="107" y="610" type="curve" smooth="yes"/>
			<point x="48" y="54" type="line" smooth="yes"/>
			<point x="45" y="27"/>
			<point x="59" y="0"/>
		</contour>
		<contour>
			<point x="482" y="333" type="curve" smooth="yes"/>
			<point x="482" y="359"/>
			<point x="461" y="375"/>
			<point x="431" y="375" type="curve" smooth="yes"/>
			<point x="170" y="375" type="line"/>
			<point x="161" y="290" type="line"/>
			<point x="436" y="290" type="line" smooth="yes"/>
			<point x="468" y="290"/>
			<point x="482" y="309"/>
		</contour>
		<contour>
			<point x="541" y="604" type="curve" smooth="yes"/>
			<point x="541" y="632"/>
			<point x="520" y="650"/>
			<point x="489" y="650" type="curve" smooth="yes"/>
			<point x="157" y="650" type="line"/>
			<point x="189" y="555" type="line"/>
			<point x="490" y="555" type="line" smooth="yes"/>
			<point x="520" y="555"/>
			<point x="541" y="575"/>
		</contour>
	</outline>
</glyph>
<glyph name="G" format="2">
  <advance width="523"/>
  <unicode hex="0047"/>
  <outline>
    <contour>
      <point x="180" y="-5" type="curve" smooth="yes"/>
      <point x="293" y="-5"/>
      <point x="365" y="161"/>
      <point x="426" y="285" type="curve"/>
      <point x="428" y="370" type="line"/>
      <point x="390" y="370"/>
      <point x="386" y="361"/>
      <point x="334" y="271" type="curve" smooth="yes"/>
      <point x="303" y="217"/>
      <point x="225" y="85"/>
      <point x="186" y="85" type="curve" smooth="yes"/>
      <point x="136" y="85"/>
      <point x="117" y="171"/>
      <point x="136" y="329" type="curve" smooth="yes"/>
      <point x="152" y="462"/>
      <point x="187" y="565"/>
      <point x="301" y="565" type="curve" smooth="yes"/>
      <point x="357" y="565"/>
      <point x="383" y="552"/>
      <point x="398" y="521" type="curve" smooth="yes"/>
      <point x="413" y="490"/>
      <point x="428" y="477"/>
      <point x="461" y="486" type="curve" smooth="yes"/>
      <point x="488" y="493"/>
      <point x="492" y="520"/>
      <point x="484" y="545" type="curve" smooth="yes"/>
      <point x="462" y="614"/>
      <point x="392" y="655"/>
      <point x="301" y="655" type="curve" smooth="yes"/>
      <point x="141" y="655"/>
      <point x="65" y="531"/>
      <point x="37" y="342" type="curve" smooth="yes"/>
      <point x="7" y="139"/>
      <point x="36" y="-5"/>
    </contour>
    <contour>
      <point x="399" y="0" type="curve" smooth="yes"/>
      <point x="434" y="0"/>
      <point x="444" y="18"/>
      <point x="447" y="42" type="curve" smooth="yes"/>
      <point x="477" y="320" type="line" smooth="yes"/>
      <point x="480" y="351"/>
      <point x="459" y="370"/>
      <point x="428" y="370" type="curve"/>
      <point x="371" y="276" type="line"/>
      <point x="347" y="49" type="line" smooth="yes"/>
      <point x="344" y="18"/>
      <point x="365" y="0"/>
    </contour>
  </outline>
</glyph>
<glyph name="H" format="2">
	<advance width="595"/>
	<unicode hex="0048"/>
	<outline>
		<contour>
			<point x="99" y="0" type="curve" smooth="yes"/>
			<point x="133" y="0"/>
			<point x="147" y="20"/>
			<point x="149" y="40" type="curve" smooth="yes"/>
			<point x="206" y="597" type="line" smooth="yes"/>
			<point x="210" y="632"/>
			<point x="192" y="650"/>
			<point x="163" y="650" type="curve" smooth="yes"/>
			<point x="136" y="650"/>
			<point x="110" y="637"/>
			<point x="107" y="609" type="curve" smooth="yes"/>
			<point x="49" y="49" type="line" smooth="yes"/>
			<point x="46" y="21"/>
			<point x="67" y="0"/>
		</contour>
		<contour>
			<point x="160" y="292" type="line"/>
			<point x="425" y="292" type="line"/>
			<point x="433" y="372" type="line"/>
			<point x="168" y="372" type="line"/>
		</contour>
		<contour>
			<point x="432" y="0" type="curve" smooth="yes"/>
			<point x="461" y="0"/>
			<point x="481" y="17"/>
			<point x="483" y="37" type="curve" smooth="yes"/>
			<point x="542" y="599" type="line" smooth="yes"/>
			<point x="545" y="631"/>
			<point x="524" y="650"/>
			<point x="493" y="650" type="curve" smooth="yes"/>
			<point x="465" y="650"/>
			<point x="445" y="635"/>
			<point x="443" y="613" type="curve" smooth="yes"/>
			<point x="384" y="49" type="line" smooth="yes"/>
			<point x="381" y="20"/>
			<point x="399" y="0"/>
		</contour>
	</outline>
</glyph>
<glyph name="I" format="2">
	<advance width="395"/>
	<unicode hex="0049"/>
	<outline>
		<contour>
			<point x="118" y="70" type="line"/>
			<point x="218" y="69" type="line"/>
			<point x="271" y="573" type="line"/>
			<point x="171" y="573" type="line"/>
		</contour>
		<contour>
			<point x="160" y="560" type="curve" smooth="yes"/>
			<point x="295" y="560" type="line" smooth="yes"/>
			<point x="327" y="560"/>
			<point x="342" y="580"/>
			<point x="342" y="604" type="curve" smooth="yes"/>
			<point x="342" y="630"/>
			<point x="318" y="650"/>
			<point x="288" y="650" type="curve" smooth="yes"/>
			<point x="153" y="650" type="line" smooth="yes"/>
			<point x="123" y="650"/>
			<point x="108" y="630"/>
			<point x="107" y="604" type="curve" smooth="yes"/>
			<point x="106" y="580"/>
			<point x="128" y="560"/>
		</contour>
		<contour>
			<point x="100" y="0" type="curve" smooth="yes"/>
			<point x="235" y="0" type="line" smooth="yes"/>
			<point x="267" y="0"/>
			<point x="282" y="20"/>
			<point x="282" y="44" type="curve" smooth="yes"/>
			<point x="282" y="70"/>
			<point x="258" y="90"/>
			<point x="228" y="90" type="curve" smooth="yes"/>
			<point x="93" y="90" type="line" smooth="yes"/>
			<point x="63" y="90"/>
			<point x="48" y="70"/>
			<point x="47" y="44" type="curve" smooth="yes"/>
			<point x="46" y="20"/>
			<point x="68" y="0"/>
		</contour>
	</outline>
</glyph>
<glyph name="J" format="2">
	<advance width="468"/>
	<unicode hex="004A"/>
	<outline>
		<contour>
			<point x="146" y="-4" type="curve" smooth="yes"/>
			<point x="243" y="-4"/>
			<point x="317" y="54"/>
			<point x="332" y="193" type="curve" smooth="yes"/>
			<point x="372" y="569" type="line"/>
			<point x="273" y="570" type="line"/>
			<point x="236" y="217" type="line" smooth="yes"/>
			<point x="224" y="107"/>
			<point x="195" y="85"/>
			<point x="142" y="85" type="curve" smooth="yes"/>
			<point x="111" y="85"/>
			<point x="84" y="118"/>
			<point x="69" y="133" type="curve" smooth="yes"/>
			<point x="50" y="152"/>
			<point x="11" y="149"/>
			<point x="-4" y="128" type="curve" smooth="yes"/>
			<point x="-19" y="107"/>
			<point x="-15" y="78"/>
			<point x="-1" y="63" type="curve" smooth="yes"/>
			<point x="17" y="44"/>
			<point x="56" y="-4"/>
		</contour>
		<contour>
			<point x="262" y="567" type="curve" smooth="yes"/>
			<point x="397" y="567" type="line" smooth="yes"/>
			<point x="429" y="567"/>
			<point x="444" y="587"/>
			<point x="444" y="611" type="curve" smooth="yes"/>
			<point x="444" y="637"/>
			<point x="420" y="657"/>
			<point x="390" y="657" type="curve" smooth="yes"/>
			<point x="255" y="657" type="line" smooth="yes"/>
			<point x="225" y="657"/>
			<point x="210" y="637"/>
			<point x="209" y="611" type="curve" smooth="yes"/>
			<point x="208" y="587"/>
			<point x="230" y="567"/>
		</contour>
	</outline>
</glyph>
<glyph name="K" format="2">
  <advance width="518"/>
  <unicode hex="004B"/>
  <outline>
    <contour>
      <point x="428" y="0" type="curve" smooth="yes"/>
      <point x="452" y="0"/>
      <point x="473" y="23"/>
      <point x="473" y="46" type="curve" smooth="yes"/>
      <point x="473" y="59"/>
      <point x="467" y="71"/>
      <point x="456" y="84" type="curve" smooth="yes"/>
      <point x="202" y="379" type="line"/>
      <point x="198" y="327" type="line"/>
      <point x="506" y="562" type="line" smooth="yes"/>
      <point x="520" y="573"/>
      <point x="530" y="587"/>
      <point x="531" y="602" type="curve" smooth="yes"/>
      <point x="532" y="625"/>
      <point x="513" y="650"/>
      <point x="484" y="650" type="curve" smooth="yes"/>
      <point x="468" y="650"/>
      <point x="454" y="643"/>
      <point x="439" y="631" type="curve" smooth="yes"/>
      <point x="139" y="382" type="line"/>
      <point x="133" y="312" type="line"/>
      <point x="378" y="25" type="line" smooth="yes"/>
      <point x="391" y="10"/>
      <point x="409" y="0"/>
    </contour>
    <contour>
      <point x="88" y="0" type="curve" smooth="yes"/>
      <point x="119" y="0"/>
      <point x="133" y="19"/>
      <point x="136" y="45" type="curve" smooth="yes"/>
      <point x="195" y="597" type="line" smooth="yes"/>
      <point x="199" y="636"/>
      <point x="173" y="650"/>
      <point x="149" y="650" type="curve" smooth="yes"/>
      <point x="123" y="650"/>
      <point x="99" y="637"/>
      <point x="96" y="609" type="curve" smooth="yes"/>
      <point x="36" y="54" type="line" smooth="yes"/>
      <point x="33" y="24"/>
      <point x="56" y="0"/>
    </contour>
  </outline>
</glyph>
<glyph name="L" format="2">
	<advance width="480"/>
	<unicode hex="004C"/>
	<outline>
		<contour>
			<point x="91" y="0" type="curve"/>
			<point x="147" y="39" type="line"/>
			<point x="206" y="597" type="line" smooth="yes"/>
			<point x="210" y="639"/>
			<point x="185" y="650"/>
			<point x="160" y="650" type="curve" smooth="yes"/>
			<point x="131" y="650"/>
			<point x="110" y="637"/>
			<point x="107" y="609" type="curve" smooth="yes"/>
			<point x="48" y="49" type="line" smooth="yes"/>
			<point x="45" y="21"/>
			<point x="61" y="0"/>
		</contour>
		<contour>
			<point x="407" y="0" type="line" smooth="yes"/>
			<point x="437" y="0"/>
			<point x="454" y="22"/>
			<point x="454" y="46" type="curve" smooth="yes"/>
			<point x="454" y="70"/>
			<point x="431" y="91"/>
			<point x="401" y="91" type="curve" smooth="yes"/>
			<point x="139" y="91" type="line"/>
			<point x="91" y="0" type="line"/>
		</contour>
	</outline>
</glyph>
<glyph name="M" format="2">
	<advance width="834"/>
	<unicode hex="004D"/>
	<outline>
		<contour>
			<point x="33" y="0" type="curve" smooth="yes"/>
			<point x="51" y="0"/>
			<point x="79" y="9"/>
			<point x="91" y="33" type="curve" smooth="yes"/>
			<point x="345" y="555" type="line"/>
			<point x="313" y="650" type="line"/>
			<point x="285" y="650"/>
			<point x="275" y="638"/>
			<point x="265" y="617" type="curve" smooth="yes"/>
			<point x="-6" y="64" type="line" smooth="yes"/>
			<point x="-14" y="47"/>
			<point x="-14" y="34"/>
			<point x="-7" y="21" type="curve" smooth="yes"/>
			<point x="0" y="8"/>
			<point x="18" y="0"/>
		</contour>
		<contour>
			<point x="382" y="0" type="curve"/>
			<point x="428" y="91" type="line"/>
			<point x="367" y="606" type="line" smooth="yes"/>
			<point x="364" y="635"/>
			<point x="353" y="650"/>
			<point x="312" y="650" type="curve"/>
			<point x="270" y="559" type="line"/>
			<point x="332" y="40" type="line" smooth="yes"/>
			<point x="335" y="18"/>
			<point x="351" y="0"/>
		</contour>
		<contour>
			<point x="381" y="0" type="line"/>
			<point x="421" y="0"/>
			<point x="431" y="19"/>
			<point x="437" y="31" type="curve" smooth="yes"/>
			<point x="702" y="566" type="line"/>
			<point x="676" y="650" type="line"/>
			<point x="645" y="650"/>
			<point x="627" y="638"/>
			<point x="616" y="616" type="curve" smooth="yes"/>
			<point x="352" y="86" type="line"/>
		</contour>
		<contour>
			<point x="733" y="0" type="curve" smooth="yes"/>
			<point x="762" y="0"/>
			<point x="782" y="20"/>
			<point x="779" y="46" type="curve" smooth="yes"/>
			<point x="718" y="606" type="line" smooth="yes"/>
			<point x="715" y="635"/>
			<point x="710" y="650"/>
			<point x="674" y="650" type="curve"/>
			<point x="621" y="562" type="line"/>
			<point x="679" y="40" type="line" smooth="yes"/>
			<point x="681" y="19"/>
			<point x="702" y="0"/>
		</contour>
	</outline>
</glyph>
<glyph name="O" format="2">
	<advance width="569"/>
	<unicode hex="004F"/>
	<outline>
		<contour>
			<point x="245" y="-4" type="curve" smooth="yes"/>
			<point x="406" y="-4"/>
			<point x="498" y="169"/>
			<point x="516" y="347" type="curve" smooth="yes"/>
			<point x="527" y="455"/>
			<point x="478" y="650"/>
			<point x="307" y="650" type="curve" smooth="yes"/>
			<point x="128" y="650"/>
			<point x="70" y="477"/>
			<point x="52" y="299" type="curve" smooth="yes"/>
			<point x="38" y="164"/>
			<point x="106" y="-4"/>
		</contour>
		<contour>
			<point x="253" y="86" type="curve" smooth="yes"/>
			<point x="186" y="86"/>
			<point x="140" y="188"/>
			<point x="153" y="299" type="curve" smooth="yes"/>
			<point x="160" y="389"/>
			<point x="190" y="560"/>
			<point x="304" y="560" type="curve" smooth="yes"/>
			<point x="399" y="560"/>
			<point x="423" y="424"/>
			<point x="413" y="335" type="curve" smooth="yes"/>
			<point x="402" y="230"/>
			<point x="339" y="86"/>
		</contour>
	</outline>
</glyph>
<glyph name="P" format="2">
	<advance width="494"/>
	<unicode hex="0050"/>
	<outline>
		<contour>
			<point x="161" y="267" type="line"/>
			<point x="283" y="269"/>
			<point x="471" y="289"/>
			<point x="490" y="467" type="curve" smooth="yes"/>
			<point x="505" y="602"/>
			<point x="364" y="650"/>
			<point x="153" y="650" type="curve"/>
			<point x="189" y="559" type="line"/>
			<point x="342" y="559"/>
			<point x="397" y="535"/>
			<point x="390" y="472" type="curve" smooth="yes"/>
			<point x="380" y="382"/>
			<point x="251" y="359"/>
			<point x="170" y="357" type="curve"/>
		</contour>
		<contour>
			<point x="96" y="0" type="curve" smooth="yes"/>
			<point x="130" y="0"/>
			<point x="146" y="17"/>
			<point x="148" y="39" type="curve" smooth="yes"/>
			<point x="206" y="597" type="line"/>
			<point x="153" y="650" type="line"/>
			<point x="127" y="650"/>
			<point x="110" y="637"/>
			<point x="107" y="609" type="curve" smooth="yes"/>
			<point x="48" y="48" type="line" smooth="yes"/>
			<point x="45" y="21"/>
			<point x="63" y="0"/>
		</contour>
	</outline>
</glyph>
<glyph name="Q" format="2">
	<advance width="569"/>
	<unicode hex="0051"/>
	<outline>
		<contour>
			<point x="439" y="-16" type="curve" smooth="yes"/>
			<point x="460" y="2"/>
			<point x="462" y="28"/>
			<point x="445" y="52" type="curve" smooth="yes"/>
			<point x="337" y="201" type="line" smooth="yes"/>
			<point x="316" y="230"/>
			<point x="283" y="235"/>
			<point x="262" y="218" type="curve" smooth="yes"/>
			<point x="243" y="202"/>
			<point x="239" y="177"/>
			<point x="260" y="150" type="curve" smooth="yes"/>
			<point x="366" y="5" type="line" smooth="yes"/>
			<point x="386" y="-21"/>
			<point x="417" y="-34"/>
		</contour>
		<contour>
			<point x="245" y="-4" type="curve" smooth="yes"/>
			<point x="406" y="-4"/>
			<point x="498" y="169"/>
			<point x="516" y="347" type="curve" smooth="yes"/>
			<point x="527" y="455"/>
			<point x="478" y="650"/>
			<point x="307" y="650" type="curve" smooth="yes"/>
			<point x="128" y="650"/>
			<point x="70" y="477"/>
			<point x="52" y="299" type="curve" smooth="yes"/>
			<point x="38" y="164"/>
			<point x="106" y="-4"/>
		</contour>
		<contour>
			<point x="253" y="86" type="curve" smooth="yes"/>
			<point x="186" y="86"/>
			<point x="140" y="188"/>
			<point x="153" y="299" type="curve" smooth="yes"/>
			<point x="160" y="389"/>
			<point x="190" y="560"/>
			<point x="304" y="560" type="curve" smooth="yes"/>
			<point x="399" y="560"/>
			<point x="423" y="424"/>
			<point x="413" y="335" type="curve" smooth="yes"/>
			<point x="402" y="230"/>
			<point x="339" y="86"/>
		</contour>
	</outline>
</glyph>
<glyph name="S" format="2">
  <advance width="505"/>
  <unicode hex="0053"/>
  <outline>
    <contour>
      <point x="215" y="-5" type="curve" smooth="yes"/>
      <point x="341" y="-5"/>
      <point x="426" y="61"/>
      <point x="437" y="168" type="curve" smooth="yes"/>
      <point x="450" y="285"/>
      <point x="374" y="350"/>
      <point x="306" y="388" type="curve" smooth="yes"/>
      <point x="245" y="422"/>
      <point x="174" y="467"/>
      <point x="179" y="508" type="curve" smooth="yes"/>
      <point x="184" y="546"/>
      <point x="225" y="566"/>
      <point x="286" y="566" type="curve" smooth="yes"/>
      <point x="337" y="566"/>
      <point x="372" y="542"/>
      <point x="387" y="515" type="curve" smooth="yes"/>
      <point x="402" y="488"/>
      <point x="430" y="481"/>
      <point x="457" y="494" type="curve" smooth="yes"/>
      <point x="480" y="506"/>
      <point x="486" y="528"/>
      <point x="476" y="551" type="curve" smooth="yes"/>
      <point x="446" y="617"/>
      <point x="392" y="655"/>
      <point x="301" y="655" type="curve" smooth="yes"/>
      <point x="163" y="655"/>
      <point x="86" y="604"/>
      <point x="76" y="511" type="curve" smooth="yes"/>
      <point x="66" y="415"/>
      <point x="176" y="346"/>
      <point x="241" y="311" type="curve" smooth="yes"/>
      <point x="312" y="273"/>
      <point x="347" y="227"/>
      <point x="342" y="172" type="curve" smooth="yes"/>
      <point x="337" y="122"/>
      <point x="288" y="91"/>
      <point x="214" y="91" type="curve" smooth="yes"/>
      <point x="152" y="91"/>
      <point x="122" y="130"/>
      <point x="116" y="151" type="curve" smooth="yes"/>
      <point x="107" y="183"/>
      <point x="77" y="193"/>
      <point x="52" y="185" type="curve" smooth="yes"/>
      <point x="30" y="178"/>
      <point x="5" y="153"/>
      <point x="17" y="113" type="curve" smooth="yes"/>
      <point x="32" y="61"/>
      <point x="103" y="-5"/>
    </contour>
  </outline>
</glyph>
<glyph name="T" format="2">
	<advance width="477"/>
	<unicode hex="0054"/>
	<outline>
		<contour>
			<point x="200" y="-2" type="curve" smooth="yes"/>
			<point x="233" y="-2"/>
			<point x="249" y="22"/>
			<point x="251" y="43" type="curve" smooth="yes"/>
			<point x="306" y="574" type="line"/>
			<point x="205" y="574" type="line"/>
			<point x="151" y="49" type="line" smooth="yes"/>
			<point x="148" y="21"/>
			<point x="169" y="-2"/>
		</contour>
		<contour>
			<point x="80" y="560" type="curve" smooth="yes"/>
			<point x="448" y="560" type="line" smooth="yes"/>
			<point x="480" y="560"/>
			<point x="495" y="580"/>
			<point x="495" y="604" type="curve" smooth="yes"/>
			<point x="495" y="630"/>
			<point x="471" y="650"/>
			<point x="441" y="650" type="curve" smooth="yes"/>
			<point x="73" y="650" type="line" smooth="yes"/>
			<point x="43" y="650"/>
			<point x="28" y="630"/>
			<point x="27" y="604" type="curve" smooth="yes"/>
			<point x="26" y="580"/>
			<point x="48" y="560"/>
		</contour>
	</outline>
</glyph>
<glyph name="U" format="2">
  <advance width="566"/>
  <unicode hex="0055"/>
  <outline>
    <contour>
      <point x="244" y="-4" type="curve" smooth="yes"/>
      <point x="369" y="-4"/>
      <point x="474" y="105"/>
      <point x="490" y="250" type="curve" smooth="yes"/>
      <point x="529" y="604" type="line" smooth="yes"/>
      <point x="532" y="630"/>
      <point x="518" y="650"/>
      <point x="480" y="650" type="curve" smooth="yes"/>
      <point x="448" y="650"/>
      <point x="432" y="629"/>
      <point x="429" y="606" type="curve" smooth="yes"/>
      <point x="390" y="250" type="line" smooth="yes"/>
      <point x="380" y="156"/>
      <point x="318" y="86"/>
      <point x="245" y="86" type="curve" smooth="yes"/>
      <point x="184" y="86"/>
      <point x="146" y="152"/>
      <point x="156" y="241" type="curve" smooth="yes"/>
      <point x="195" y="605" type="line" smooth="yes"/>
      <point x="198" y="629"/>
      <point x="184" y="650"/>
      <point x="148" y="650" type="curve" smooth="yes"/>
      <point x="113" y="650"/>
      <point x="96" y="629"/>
      <point x="94" y="606" type="curve" smooth="yes"/>
      <point x="56" y="244" type="line" smooth="yes"/>
      <point x="41" y="102"/>
      <point x="121" y="-4"/>
    </contour>
  </outline>
</glyph>
<glyph name="V" format="2">
	<advance width="463"/>
	<unicode hex="0056"/>
	<outline>
		<contour>
			<point x="242" y="34" type="curve" smooth="yes"/>
			<point x="471" y="591" type="line" smooth="yes"/>
			<point x="485" y="625"/>
			<point x="463" y="650"/>
			<point x="431" y="650" type="curve" smooth="yes"/>
			<point x="402" y="650"/>
			<point x="382" y="638"/>
			<point x="374" y="618" type="curve" smooth="yes"/>
			<point x="242" y="304" type="line"/>
			<point x="168" y="98" type="line"/>
			<point x="189" y="-2" type="line"/>
			<point x="218" y="-2"/>
			<point x="234" y="15"/>
		</contour>
		<contour>
			<point x="140" y="44" type="line" smooth="yes"/>
			<point x="144" y="19"/>
			<point x="159" y="-1"/>
			<point x="189" y="-2" type="curve"/>
			<point x="226" y="98" type="line"/>
			<point x="200" y="304" type="line"/>
			<point x="151" y="610" type="line" smooth="yes"/>
			<point x="147" y="633"/>
			<point x="126" y="650"/>
			<point x="94" y="650" type="curve" smooth="yes"/>
			<point x="65" y="650"/>
			<point x="46" y="634"/>
			<point x="51" y="604" type="curve" smooth="yes"/>
		</contour>
	</outline>
</glyph>
<glyph name="W" format="2">
  <advance width="797"/>
  <unicode hex="0057"/>
  <outline>
    <contour>
      <point x="190" y="0" type="curve" smooth="yes"/>
      <point x="221" y="0"/>
      <point x="244" y="14"/>
      <point x="255" y="43" type="curve" smooth="yes"/>
      <point x="391" y="412" type="line"/>
      <point x="417" y="493" type="line"/>
      <point x="413" y="494" type="line"/>
      <point x="421" y="412" type="line"/>
      <point x="474" y="32" type="line" smooth="yes"/>
      <point x="476" y="15"/>
      <point x="495" y="0"/>
      <point x="525" y="0" type="curve" smooth="yes"/>
      <point x="556" y="0"/>
      <point x="569" y="12"/>
      <point x="578" y="33" type="curve" smooth="yes"/>
      <point x="807" y="591" type="line" smooth="yes"/>
      <point x="817" y="615"/>
      <point x="802" y="650"/>
      <point x="764" y="650" type="curve" smooth="yes"/>
      <point x="732" y="650"/>
      <point x="715" y="630"/>
      <point x="709" y="616" type="curve" smooth="yes"/>
      <point x="575" y="276" type="line"/>
      <point x="532" y="165" type="line"/>
      <point x="543" y="163" type="line"/>
      <point x="529" y="276" type="line"/>
      <point x="485" y="610" type="line" smooth="yes"/>
      <point x="482" y="635"/>
      <point x="461" y="650"/>
      <point x="426" y="650" type="curve" smooth="yes"/>
      <point x="394" y="650"/>
      <point x="379" y="634"/>
      <point x="371" y="612" type="curve" smooth="yes"/>
      <point x="246" y="277" type="line"/>
      <point x="200" y="151" type="line"/>
      <point x="210" y="149" type="line"/>
      <point x="194" y="280" type="line"/>
      <point x="148" y="610" type="line" smooth="yes"/>
      <point x="145" y="633"/>
      <point x="124" y="650"/>
      <point x="92" y="650" type="curve" smooth="yes"/>
      <point x="63" y="650"/>
      <point x="43" y="634"/>
      <point x="48" y="604" type="curve" smooth="yes"/>
      <point x="133" y="44" type="line" smooth="yes"/>
      <point x="137" y="15"/>
      <point x="157" y="0"/>
    </contour>
  </outline>
</glyph>
<glyph name="X" format="2">
  <advance width="509"/>
  <unicode hex="0058"/>
  <outline>
    <contour>
      <point x="22" y="13" type="curve" smooth="yes"/>
      <point x="42" y="-3"/>
      <point x="83" y="-8"/>
      <point x="98" y="16" type="curve" smooth="yes"/>
      <point x="265" y="279" type="line"/>
      <point x="280" y="279" type="line"/>
      <point x="483" y="578" type="line" smooth="yes"/>
      <point x="499" y="602"/>
      <point x="492" y="623"/>
      <point x="473" y="639" type="curve" smooth="yes"/>
      <point x="454" y="655"/>
      <point x="414" y="656"/>
      <point x="398" y="631" type="curve" smooth="yes"/>
      <point x="236" y="375" type="line"/>
      <point x="221" y="375" type="line"/>
      <point x="13" y="69" type="line" smooth="yes"/>
      <point x="-1" y="48"/>
      <point x="3" y="29"/>
    </contour>
    <contour>
      <point x="401" y="6" type="curve" smooth="yes"/>
      <point x="421" y="17"/>
      <point x="429" y="36"/>
      <point x="418" y="61" type="curve" smooth="yes"/>
      <point x="281" y="367" type="line"/>
      <point x="167" y="623" type="line" smooth="yes"/>
      <point x="154" y="651"/>
      <point x="119" y="654"/>
      <point x="97" y="647" type="curve" smooth="yes"/>
      <point x="71" y="637"/>
      <point x="60" y="617"/>
      <point x="74" y="586" type="curve" smooth="yes"/>
      <point x="208" y="286" type="line"/>
      <point x="323" y="28" type="line" smooth="yes"/>
      <point x="336" y="-1"/>
      <point x="378" y="-6"/>
    </contour>
  </outline>
</glyph>
<glyph name="Y" format="2">
  <advance width="482"/>
  <unicode hex="0059"/>
  <outline>
    <contour>
      <point x="77" y="646" type="curve" smooth="yes"/>
      <point x="46" y="636"/>
      <point x="41" y="608"/>
      <point x="52" y="584" type="curve" smooth="yes"/>
      <point x="220" y="223" type="line"/>
      <point x="279" y="314" type="line"/>
      <point x="145" y="621" type="line" smooth="yes"/>
      <point x="135" y="644"/>
      <point x="108" y="657"/>
    </contour>
    <contour>
      <point x="80" y="9" type="curve" smooth="yes"/>
      <point x="100" y="-7"/>
      <point x="142" y="-2"/>
      <point x="156" y="22" type="curve" smooth="yes"/>
      <point x="488" y="578" type="line" smooth="yes"/>
      <point x="502" y="602"/>
      <point x="495" y="630"/>
      <point x="469" y="645" type="curve" smooth="yes"/>
      <point x="448" y="656"/>
      <point x="415" y="650"/>
      <point x="399" y="624" type="curve" smooth="yes"/>
      <point x="69" y="75" type="line" smooth="yes"/>
      <point x="56" y="54"/>
      <point x="61" y="25"/>
    </contour>
  </outline>
</glyph>
<glyph name="Z" format="2">
	<advance width="459"/>
	<unicode hex="005A"/>
	<outline>
		<contour>
			<point x="43" y="0" type="curve"/>
			<point x="78" y="17" type="line"/>
			<point x="462" y="577" type="line" smooth="yes"/>
			<point x="483" y="608"/>
			<point x="468" y="650"/>
			<point x="425" y="650" type="curve"/>
			<point x="384" y="633" type="line"/>
			<point x="1" y="70" type="line" smooth="yes"/>
			<point x="-18" y="42"/>
			<point x="-1" y="0"/>
		</contour>
		<contour>
			<point x="364" y="0" type="line" smooth="yes"/>
			<point x="396" y="0"/>
			<point x="411" y="19"/>
			<point x="411" y="43" type="curve" smooth="yes"/>
			<point x="411" y="70"/>
			<point x="391" y="90"/>
			<point x="361" y="90" type="curve" smooth="yes"/>
			<point x="104" y="90" type="line"/>
			<point x="43" y="0" type="line"/>
		</contour>
		<contour>
			<point x="107" y="560" type="curve" smooth="yes"/>
			<point x="353" y="560" type="line"/>
			<point x="425" y="650" type="line"/>
			<point x="100" y="650" type="line" smooth="yes"/>
			<point x="70" y="650"/>
			<point x="52" y="630"/>
			<point x="54" y="604" type="curve" smooth="yes"/>
			<point x="55" y="580"/>
			<point x="75" y="560"/>
		</contour>
	</outline>
</glyph>
<glyph name="bracketleft" format="2">
  <advance width="360"/>
  <unicode hex="005B"/>
  <outline>
    <contour>
      <point x="66" y="-300" type="curve" smooth="yes"/>
      <point x="204" y="-300" type="line" smooth="yes"/>
      <point x="234" y="-300"/>
      <point x="250" y="-284"/>
      <point x="253" y="-258" type="curve" smooth="yes"/>
      <point x="256" y="-230"/>
      <point x="229" y="-215"/>
      <point x="198" y="-215" type="curve" smooth="yes"/>
      <point x="121" y="-215" type="line"/>
      <point x="204" y="565" type="line"/>
      <point x="296" y="565" type="line" smooth="yes"/>
      <point x="324" y="565"/>
      <point x="342" y="582"/>
      <point x="345" y="605" type="curve" smooth="yes"/>
      <point x="348" y="633"/>
      <point x="320" y="650"/>
      <point x="291" y="650" type="curve"/>
      <point x="158" y="650" type="line" smooth="yes"/>
      <point x="130.0" y="650.0"/>
      <point x="110" y="637"/>
      <point x="107" y="609" type="curve" smooth="yes"/>
      <point x="16" y="-251" type="line" smooth="yes"/>
      <point x="13" y="-278"/>
      <point x="33" y="-300.0"/>
    </contour>
  </outline>
</glyph>
<glyph name="backslash" format="2">
  <advance width="406"/>
  <unicode hex="005C"/>
  <outline>
    <contour>
      <point x="94" y="650" type="curve" smooth="yes"/>
      <point x="62" y="650"/>
      <point x="31" y="625"/>
      <point x="44" y="590" type="curve" smooth="yes"/>
      <point x="265" y="-16" type="line" smooth="yes"/>
      <point x="274" y="-41"/>
      <point x="296" y="-52"/>
      <point x="316" y="-52" type="curve" smooth="yes"/>
      <point x="346" y="-52"/>
      <point x="378" y="-26"/>
      <point x="365" y="10" type="curve" smooth="yes"/>
      <point x="143" y="618" type="line" smooth="yes"/>
      <point x="135" y="640"/>
      <point x="113" y="650"/>
    </contour>
  </outline>
</glyph>
<glyph name="bracketright" format="2">
	<advance width="360"/>
	<unicode hex="005D"/>
	<outline>
		<contour>
			<point x="314" y="601" type="line" smooth="yes"/>
			<point x="317" y="629"/>
			<point x="296" y="650"/>
			<point x="262" y="650" type="curve" smooth="yes"/>
			<point x="228" y="650"/>
			<point x="216" y="632"/>
			<point x="213" y="610" type="curve" smooth="yes"/>
			<point x="122" y="-246" type="line" smooth="yes"/>
			<point x="117" y="-291"/>
			<point x="143" y="-300"/>
			<point x="170" y="-300" type="curve" smooth="yes"/>
			<point x="201" y="-300"/>
			<point x="219" y="-287"/>
			<point x="222" y="-259" type="curve" smooth="yes"/>
		</contour>
		<contour>
			<point x="171" y="-300" type="line"/>
			<point x="179" y="-215" type="line"/>
			<point x="34" y="-215" type="line" smooth="yes"/>
			<point x="8" y="-215"/>
			<point x="-12" y="-233"/>
			<point x="-14" y="-257" type="curve" smooth="yes"/>
			<point x="-16" y="-281"/>
			<point x="6" y="-300"/>
			<point x="40" y="-300" type="curve" smooth="yes"/>
		</contour>
		<contour>
			<point x="252" y="565" type="line"/>
			<point x="263" y="650" type="line"/>
			<point x="127" y="650" type="line" smooth="yes"/>
			<point x="96" y="650"/>
			<point x="81" y="634"/>
			<point x="78" y="607" type="curve" smooth="yes"/>
			<point x="75" y="583"/>
			<point x="101" y="565"/>
			<point x="132" y="565" type="curve" smooth="yes"/>
		</contour>
	</outline>
</glyph>
<glyph name="asciicircum" format="2">
  <advance width="411"/>
  <unicode hex="005E"/>
  <outline>
    <contour>
      <point x="208" y="500" type="curve" smooth="yes"/>
      <point x="290" y="570" type="line"/>
      <point x="260" y="572" type="line"/>
      <point x="317" y="505" type="line" smooth="yes"/>
      <point x="335.00000000000006" y="483.0"/>
      <point x="359.0" y="488.0"/>
      <point x="373" y="500" type="curve" smooth="yes"/>
      <point x="388.00000000000006" y="513.0"/>
      <point x="393.0" y="536.9999999999999"/>
      <point x="377" y="556" type="curve" smooth="yes"/>
      <point x="310" y="636" type="line" smooth="yes"/>
      <point x="298.0" y="651.0"/>
      <point x="274.0" y="657.9999999999999"/>
      <point x="251" y="638" type="curve" smooth="yes"/>
      <point x="155" y="558" type="line" smooth="yes"/>
      <point x="135.0" y="541.0"/>
      <point x="138.0" y="518.0"/>
      <point x="151" y="503" type="curve"/>
      <point x="165.0" y="489.0"/>
      <point x="183.0" y="480.0"/>
    </contour>
  </outline>
</glyph>
<glyph name="grave" format="2">
  <advance width="500"/>
  <unicode hex="0060"/>
  <outline>
    <contour>
      <point x="303" y="468" type="line" smooth="yes"/>
      <point x="319.0" y="442.0"/>
      <point x="342.0" y="448.00000000000006"/>
      <point x="355" y="455" type="curve" smooth="yes"/>
      <point x="367.0" y="461.0"/>
      <point x="393.0" y="479.0"/>
      <point x="379" y="506" type="curve" smooth="yes"/>
      <point x="330" y="602" type="line" smooth="yes"/>
      <point x="321.0" y="620.0"/>
      <point x="305.00000000000006" y="628.0"/>
      <point x="290" y="628" type="curve" smooth="yes"/>
      <point x="264.0" y="628.0"/>
      <point x="224.0" y="598.0000000000001"/>
      <point x="246" y="562" type="curve" smooth="yes"/>
    </contour>
  </outline>
</glyph>
<glyph name="a" format="2">
	<advance width="377"/>
	<unicode hex="0061"/>
	<outline>
		<contour>
			<point x="119" y="-4" type="curve" smooth="yes"/>
			<point x="173" y="-4"/>
			<point x="226" y="75"/>
			<point x="249" y="114" type="curve"/>
			<point x="262" y="262" type="line"/>
			<point x="205" y="262" type="line"/>
			<point x="201" y="240"/>
			<point x="197" y="220"/>
			<point x="194" y="209" type="curve" smooth="yes"/>
			<point x="173" y="131"/>
			<point x="150" y="86"/>
			<point x="126" y="86" type="curve" smooth="yes"/>
			<point x="101" y="86"/>
			<point x="91" y="119"/>
			<point x="97" y="170" type="curve" smooth="yes"/>
			<point x="104" y="236"/>
			<point x="126" y="261"/>
			<point x="157" y="261" type="curve" smooth="yes"/>
			<point x="179" y="261"/>
			<point x="201" y="257"/>
			<point x="253" y="179" type="curve"/>
			<point x="265" y="297" type="line"/>
			<point x="240" y="331"/>
			<point x="192" y="354"/>
			<point x="158" y="354" type="curve" smooth="yes"/>
			<point x="79" y="354"/>
			<point x="12" y="294"/>
			<point x="0" y="179" type="curve" smooth="yes"/>
			<point x="-9" y="91"/>
			<point x="21" y="-4"/>
		</contour>
		<contour>
			<point x="231" y="0" type="curve" smooth="yes"/>
			<point x="255" y="0"/>
			<point x="281" y="14"/>
			<point x="284" y="43" type="curve" smooth="yes"/>
			<point x="311" y="300" type="line" smooth="yes"/>
			<point x="314" y="333"/>
			<point x="289" y="350"/>
			<point x="262" y="350" type="curve" smooth="yes"/>
			<point x="237" y="350"/>
			<point x="216" y="337"/>
			<point x="213" y="308" type="curve" smooth="yes"/>
			<point x="186" y="49" type="line" smooth="yes"/>
			<point x="183" y="17"/>
			<point x="204" y="0"/>
		</contour>
	</outline>
</glyph>
<glyph name="b" format="2">
  <advance width="394"/>
  <unicode hex="0062"/>
  <outline>
    <contour>
      <point x="72" y="0" type="curve" smooth="yes"/>
      <point x="101" y="0"/>
      <point x="123" y="24"/>
      <point x="127" y="57" type="curve" smooth="yes"/>
      <point x="185" y="597" type="line" smooth="yes"/>
      <point x="188" y="625"/>
      <point x="173" y="650"/>
      <point x="138" y="650" type="curve" smooth="yes"/>
      <point x="108" y="650"/>
      <point x="88" y="629"/>
      <point x="85" y="602" type="curve" smooth="yes"/>
      <point x="26" y="57" type="line" smooth="yes"/>
      <point x="22" y="21"/>
      <point x="39" y="0"/>
    </contour>
    <contour>
      <point x="183" y="-1" type="curve" smooth="yes"/>
      <point x="261" y="-1"/>
      <point x="330" y="63"/>
      <point x="343" y="178" type="curve" smooth="yes"/>
      <point x="355" y="291"/>
      <point x="314" y="360"/>
      <point x="236" y="360" type="curve" smooth="yes"/>
      <point x="189" y="360"/>
      <point x="152" y="329"/>
      <point x="125" y="269" type="curve"/>
      <point x="120" y="90" type="line"/>
      <point x="143" y="206"/>
      <point x="190" y="270"/>
      <point x="215" y="270" type="curve" smooth="yes"/>
      <point x="238" y="270"/>
      <point x="249" y="238"/>
      <point x="243" y="186" type="curve" smooth="yes"/>
      <point x="236" y="121"/>
      <point x="214" y="86"/>
      <point x="184" y="86" type="curve" smooth="yes"/>
      <point x="155" y="86"/>
      <point x="140" y="90"/>
      <point x="89" y="168" type="curve"/>
      <point x="76" y="56" type="line"/>
      <point x="98" y="23"/>
      <point x="143" y="-1"/>
    </contour>
  </outline>
</glyph>
<glyph name="c" format="2">
	<advance width="306"/>
	<unicode hex="0063"/>
	<outline>
		<contour>
			<point x="127" y="-4" type="curve" smooth="yes"/>
			<point x="186" y="-4"/>
			<point x="227" y="35"/>
			<point x="251" y="78" type="curve" smooth="yes"/>
			<point x="262" y="98"/>
			<point x="255" y="125"/>
			<point x="234" y="135" type="curve" smooth="yes"/>
			<point x="212" y="148"/>
			<point x="186" y="140"/>
			<point x="175" y="120" type="curve" smooth="yes"/>
			<point x="160" y="93"/>
			<point x="146" y="81"/>
			<point x="131" y="81" type="curve" smooth="yes"/>
			<point x="99" y="81"/>
			<point x="88" y="118"/>
			<point x="94" y="171" type="curve" smooth="yes"/>
			<point x="101" y="239"/>
			<point x="126" y="266"/>
			<point x="158" y="266" type="curve" smooth="yes"/>
			<point x="174" y="266"/>
			<point x="178" y="263"/>
			<point x="184" y="254" type="curve" smooth="yes"/>
			<point x="194" y="236"/>
			<point x="219" y="228"/>
			<point x="240" y="241" type="curve" smooth="yes"/>
			<point x="262" y="253"/>
			<point x="267" y="281"/>
			<point x="256" y="297" type="curve" smooth="yes"/>
			<point x="236" y="328"/>
			<point x="204" y="350"/>
			<point x="159" y="350" type="curve" smooth="yes"/>
			<point x="84" y="350"/>
			<point x="6" y="290"/>
			<point x="-6" y="178" type="curve" smooth="yes"/>
			<point x="-15" y="93"/>
			<point x="34" y="-4"/>
		</contour>
	</outline>
</glyph>
<glyph name="d" format="2">
  <advance width="392"/>
  <unicode hex="0064"/>
  <outline>
    <contour>
      <point x="126" y="-1" type="curve" smooth="yes"/>
      <point x="192" y="-1"/>
      <point x="216" y="75"/>
      <point x="239" y="114" type="curve"/>
      <point x="228" y="262" type="line"/>
      <point x="207" y="130"/>
      <point x="178" y="89"/>
      <point x="145" y="89" type="curve" smooth="yes"/>
      <point x="120" y="89"/>
      <point x="110" y="119"/>
      <point x="116" y="170" type="curve" smooth="yes"/>
      <point x="123" y="236"/>
      <point x="145" y="270"/>
      <point x="176" y="270" type="curve" smooth="yes"/>
      <point x="198" y="270"/>
      <point x="230" y="259"/>
      <point x="272" y="198" type="curve"/>
      <point x="284" y="303" type="line"/>
      <point x="259" y="337"/>
      <point x="211" y="360"/>
      <point x="177" y="360" type="curve" smooth="yes"/>
      <point x="98" y="360"/>
      <point x="31" y="294"/>
      <point x="19" y="179" type="curve" smooth="yes"/>
      <point x="10" y="91"/>
      <point x="40" y="-1"/>
    </contour>
    <contour>
      <point x="252" y="0" type="curve" smooth="yes"/>
      <point x="281" y="0"/>
      <point x="303" y="24"/>
      <point x="307" y="57" type="curve" smooth="yes"/>
      <point x="365" y="597" type="line" smooth="yes"/>
      <point x="368" y="625"/>
      <point x="353" y="650"/>
      <point x="318" y="650" type="curve" smooth="yes"/>
      <point x="288" y="650"/>
      <point x="268" y="629"/>
      <point x="265" y="602" type="curve" smooth="yes"/>
      <point x="206" y="57" type="line" smooth="yes"/>
      <point x="202" y="21"/>
      <point x="219" y="0"/>
    </contour>
  </outline>
</glyph>
<glyph name="e" format="2">
	<advance width="333"/>
	<unicode hex="0065"/>
	<outline>
		<contour>
			<point x="130" y="-4" type="curve" smooth="yes"/>
			<point x="192" y="-4"/>
			<point x="239" y="24"/>
			<point x="264" y="69" type="curve" smooth="yes"/>
			<point x="275" y="91"/>
			<point x="267" y="118"/>
			<point x="245" y="131" type="curve" smooth="yes"/>
			<point x="219" y="146"/>
			<point x="197" y="137"/>
			<point x="186" y="114" type="curve" smooth="yes"/>
			<point x="171" y="88"/>
			<point x="147" y="86"/>
			<point x="134" y="86" type="curve" smooth="yes"/>
			<point x="105" y="86"/>
			<point x="89" y="119"/>
			<point x="95" y="170" type="curve" smooth="yes"/>
			<point x="102" y="236"/>
			<point x="130" y="265"/>
			<point x="161" y="265" type="curve" smooth="yes"/>
			<point x="184" y="265"/>
			<point x="187" y="257"/>
			<point x="184" y="254" type="curve" smooth="yes"/>
			<point x="160" y="230"/>
			<point x="93" y="181"/>
			<point x="48" y="155" type="curve"/>
			<point x="51" y="73" type="line"/>
			<point x="125" y="125"/>
			<point x="311" y="223"/>
			<point x="262" y="303" type="curve" smooth="yes"/>
			<point x="240" y="337"/>
			<point x="208" y="354"/>
			<point x="162" y="354" type="curve" smooth="yes"/>
			<point x="83" y="354"/>
			<point x="16" y="294"/>
			<point x="4" y="179" type="curve" smooth="yes"/>
			<point x="-5" y="91"/>
			<point x="32" y="-4"/>
		</contour>
	</outline>
</glyph>
<glyph name="f" format="2">
  <advance width="259"/>
  <unicode hex="0066"/>
  <outline>
    <contour>
      <point x="80" y="-1" type="curve" smooth="yes"/>
      <point x="112" y="-1"/>
      <point x="127" y="25"/>
      <point x="129" y="47" type="curve" smooth="yes"/>
      <point x="176" y="494" type="line" smooth="yes"/>
      <point x="181" y="538"/>
      <point x="190" y="560"/>
      <point x="204" y="560" type="curve" smooth="yes"/>
      <point x="218" y="560"/>
      <point x="227" y="557"/>
      <point x="235" y="544" type="curve" smooth="yes"/>
      <point x="246" y="526"/>
      <point x="267" y="514"/>
      <point x="291" y="527" type="curve" smooth="yes"/>
      <point x="312" y="540"/>
      <point x="324" y="570"/>
      <point x="310" y="593" type="curve" smooth="yes"/>
      <point x="288" y="627"/>
      <point x="252" y="650"/>
      <point x="205" y="650" type="curve" smooth="yes"/>
      <point x="139" y="650"/>
      <point x="86" y="597"/>
      <point x="77" y="508" type="curve" smooth="yes"/>
      <point x="29" y="54" type="line" smooth="yes"/>
      <point x="26" y="27"/>
      <point x="48" y="-1"/>
    </contour>
    <contour>
      <point x="34" y="260" type="curve" smooth="yes"/>
      <point x="199" y="260" type="line" smooth="yes"/>
      <point x="229" y="260"/>
      <point x="247" y="277"/>
      <point x="247" y="305" type="curve" smooth="yes"/>
      <point x="247" y="333"/>
      <point x="229" y="350"/>
      <point x="199" y="350" type="curve" smooth="yes"/>
      <point x="34" y="350" type="line" smooth="yes"/>
      <point x="2" y="350"/>
      <point x="-17" y="333"/>
      <point x="-17" y="305" type="curve" smooth="yes"/>
      <point x="-17" y="277"/>
      <point x="2" y="260"/>
    </contour>
  </outline>
</glyph>
<glyph name="g" format="2">
	<advance width="389"/>
	<unicode hex="0067"/>
	<outline>
		<contour>
			<point x="119" y="-4" type="curve" smooth="yes"/>
			<point x="172" y="-4"/>
			<point x="224" y="60"/>
			<point x="245" y="107" type="curve"/>
			<point x="264" y="260" type="line"/>
			<point x="212" y="260" type="line"/>
			<point x="211" y="235"/>
			<point x="210" y="225"/>
			<point x="207" y="210" type="curve" smooth="yes"/>
			<point x="192" y="136"/>
			<point x="155" y="86"/>
			<point x="130" y="86" type="curve" smooth="yes"/>
			<point x="104" y="86"/>
			<point x="91" y="118"/>
			<point x="98" y="170" type="curve" smooth="yes"/>
			<point x="104" y="238"/>
			<point x="129" y="260"/>
			<point x="160" y="260" type="curve" smooth="yes"/>
			<point x="182" y="260"/>
			<point x="222" y="258"/>
			<point x="256" y="187" type="curve"/>
			<point x="265" y="290" type="line"/>
			<point x="237" y="316"/>
			<point x="210" y="350"/>
			<point x="161" y="350" type="curve" smooth="yes"/>
			<point x="82" y="350"/>
			<point x="11" y="292"/>
			<point x="0" y="179" type="curve" smooth="yes"/>
			<point x="-9" y="92"/>
			<point x="23" y="-4"/>
		</contour>
		<contour>
			<point x="104" y="-300" type="curve" smooth="yes"/>
			<point x="192" y="-300"/>
			<point x="263" y="-231"/>
			<point x="276" y="-111" type="curve" smooth="yes"/>
			<point x="320" y="292" type="line" smooth="yes"/>
			<point x="324" y="326"/>
			<point x="299" y="350"/>
			<point x="272" y="350" type="curve" smooth="yes"/>
			<point x="246" y="350"/>
			<point x="223" y="331"/>
			<point x="220" y="301" type="curve" smooth="yes"/>
			<point x="176" y="-105" type="line" smooth="yes"/>
			<point x="168" y="-181"/>
			<point x="143" y="-210"/>
			<point x="105" y="-210" type="curve" smooth="yes"/>
			<point x="79" y="-210"/>
			<point x="59" y="-200"/>
			<point x="53" y="-192" type="curve" smooth="yes"/>
			<point x="38" y="-172"/>
			<point x="18" y="-165"/>
			<point x="-7" y="-178" type="curve" smooth="yes"/>
			<point x="-31" y="-193"/>
			<point x="-35" y="-222"/>
			<point x="-22" y="-242" type="curve" smooth="yes"/>
			<point x="1" y="-276"/>
			<point x="37" y="-300"/>
		</contour>
	</outline>
</glyph>
<glyph name="h" format="2">
  <advance width="397"/>
  <unicode hex="0068"/>
  <outline>
    <contour>
      <point x="70" y="0" type="curve" smooth="yes"/>
      <point x="112" y="0"/>
      <point x="120" y="24"/>
      <point x="122" y="45" type="curve" smooth="yes"/>
      <point x="186" y="602" type="line" smooth="yes"/>
      <point x="189" y="631"/>
      <point x="175" y="650"/>
      <point x="143" y="650" type="curve" smooth="yes"/>
      <point x="112" y="650"/>
      <point x="91" y="637"/>
      <point x="88" y="608" type="curve" smooth="yes"/>
      <point x="25" y="52" type="line" smooth="yes"/>
      <point x="22" y="24"/>
      <point x="34" y="0"/>
    </contour>
    <contour>
      <point x="268" y="0" type="curve" smooth="yes"/>
      <point x="303" y="0"/>
      <point x="315" y="24"/>
      <point x="318" y="46" type="curve" smooth="yes"/>
      <point x="341" y="229" type="line" smooth="yes"/>
      <point x="352" y="310"/>
      <point x="317" y="360"/>
      <point x="258" y="360" type="curve" smooth="yes"/>
      <point x="220" y="360"/>
      <point x="181" y="334"/>
      <point x="141" y="284" type="curve"/>
      <point x="128" y="166" type="line"/>
      <point x="178" y="247"/>
      <point x="218" y="270"/>
      <point x="231" y="270" type="curve" smooth="yes"/>
      <point x="242" y="270"/>
      <point x="246" y="258"/>
      <point x="244" y="235" type="curve" smooth="yes"/>
      <point x="222" y="52" type="line" smooth="yes"/>
      <point x="219" y="24"/>
      <point x="230" y="0"/>
    </contour>
  </outline>
</glyph>
<glyph name="i" format="2">
  <advance width="209"/>
  <unicode hex="0069"/>
  <outline>
    <contour>
      <point x="72" y="0" type="curve" smooth="yes"/>
      <point x="97" y="0"/>
      <point x="120" y="15"/>
      <point x="123" y="43" type="curve" smooth="yes"/>
      <point x="150" y="299" type="line" smooth="yes"/>
      <point x="153" y="332"/>
      <point x="130" y="350"/>
      <point x="104" y="350" type="curve" smooth="yes"/>
      <point x="79" y="350"/>
      <point x="55" y="337"/>
      <point x="52" y="308" type="curve" smooth="yes"/>
      <point x="25" y="48" type="line" smooth="yes"/>
      <point x="22" y="16"/>
      <point x="45" y="0"/>
    </contour>
    <contour>
      <point x="119" y="427" type="curve" smooth="yes"/>
      <point x="151" y="427"/>
      <point x="174" y="456"/>
      <point x="174" y="483" type="curve" smooth="yes"/>
      <point x="174" y="509"/>
      <point x="151" y="537"/>
      <point x="119" y="537" type="curve" smooth="yes"/>
      <point x="89" y="537"/>
      <point x="64" y="511"/>
      <point x="64" y="482" type="curve" smooth="yes"/>
      <point x="64" y="452"/>
      <point x="89" y="427"/>
    </contour>
  </outline>
</glyph>
<glyph name="j" format="2">
	<advance width="208"/>
	<unicode hex="006A"/>
	<outline>
		<contour>
			<point x="101" y="419" type="curve" smooth="yes"/>
			<point x="135" y="419"/>
			<point x="163" y="448"/>
			<point x="163" y="483" type="curve" smooth="yes"/>
			<point x="163" y="519"/>
			<point x="134" y="545"/>
			<point x="101" y="545" type="curve" smooth="yes"/>
			<point x="67" y="545"/>
			<point x="37" y="518"/>
			<point x="37" y="483" type="curve" smooth="yes"/>
			<point x="37" y="447"/>
			<point x="68" y="419"/>
		</contour>
		<contour>
			<point x="-89" y="-300" type="curve" smooth="yes"/>
			<point x="4" y="-300"/>
			<point x="74" y="-240"/>
			<point x="87" y="-120" type="curve" smooth="yes"/>
			<point x="131" y="295" type="line" smooth="yes"/>
			<point x="135" y="329"/>
			<point x="111" y="350"/>
			<point x="84" y="350" type="curve" smooth="yes"/>
			<point x="58" y="350"/>
			<point x="34" y="331"/>
			<point x="31" y="301" type="curve" smooth="yes"/>
			<point x="-13" y="-114" type="line" smooth="yes"/>
			<point x="-20" y="-184"/>
			<point x="-45" y="-210"/>
			<point x="-83" y="-210" type="curve" smooth="yes"/>
			<point x="-111" y="-210"/>
			<point x="-129" y="-205"/>
			<point x="-134" y="-198" type="curve" smooth="yes"/>
			<point x="-148" y="-179"/>
			<point x="-165" y="-170"/>
			<point x="-190" y="-183" type="curve" smooth="yes"/>
			<point x="-215" y="-198"/>
			<point x="-219" y="-230"/>
			<point x="-206" y="-250" type="curve" smooth="yes"/>
			<point x="-184" y="-284"/>
			<point x="-142" y="-300"/>
		</contour>
	</outline>
</glyph>
<glyph name="k" format="2">
  <advance width="375"/>
  <unicode hex="006B"/>
  <outline>
    <contour>
      <point x="72" y="0" type="curve" smooth="yes"/>
      <point x="101" y="0"/>
      <point x="122" y="18"/>
      <point x="126" y="51" type="curve" smooth="yes"/>
      <point x="185" y="597" type="line" smooth="yes"/>
      <point x="188" y="625"/>
      <point x="173" y="650"/>
      <point x="138" y="650" type="curve" smooth="yes"/>
      <point x="108" y="650"/>
      <point x="88" y="629"/>
      <point x="85" y="602" type="curve" smooth="yes"/>
      <point x="26" y="57" type="line" smooth="yes"/>
      <point x="22" y="21"/>
      <point x="39" y="0"/>
    </contour>
    <contour>
      <point x="262" y="0" type="curve" smooth="yes"/>
      <point x="284" y="0"/>
      <point x="304" y="14"/>
      <point x="309" y="37" type="curve" smooth="yes"/>
      <point x="311" y="51"/>
      <point x="311" y="65"/>
      <point x="297" y="83" type="curve" smooth="yes"/>
      <point x="193" y="215" type="line"/>
      <point x="117" y="154" type="line"/>
      <point x="214" y="27" type="line" smooth="yes"/>
      <point x="230" y="6"/>
      <point x="243" y="0"/>
    </contour>
    <contour>
      <point x="106" y="123" type="line"/>
      <point x="298" y="259" type="line" smooth="yes"/>
      <point x="315" y="271"/>
      <point x="321" y="289"/>
      <point x="322" y="303" type="curve" smooth="yes"/>
      <point x="323" y="325"/>
      <point x="307" y="349"/>
      <point x="278" y="350" type="curve" smooth="yes"/>
      <point x="263" y="351"/>
      <point x="249" y="345"/>
      <point x="231" y="332" type="curve" smooth="yes"/>
      <point x="114" y="248" type="line"/>
    </contour>
  </outline>
</glyph>
<glyph name="l" format="2">
	<advance width="189"/>
	<unicode hex="006C"/>
	<outline>
		<contour>
			<point x="46" y="0" type="curve" smooth="yes"/>
			<point x="75" y="0"/>
			<point x="96" y="18"/>
			<point x="100" y="51" type="curve" smooth="yes"/>
			<point x="159" y="597" type="line" smooth="yes"/>
			<point x="162" y="625"/>
			<point x="147" y="650"/>
			<point x="112" y="650" type="curve" smooth="yes"/>
			<point x="82" y="650"/>
			<point x="62" y="629"/>
			<point x="59" y="602" type="curve" smooth="yes"/>
			<point x="0" y="57" type="line" smooth="yes"/>
			<point x="-4" y="21"/>
			<point x="13" y="0"/>
		</contour>
	</outline>
</glyph>
<glyph name="m" format="2">
  <advance width="575"/>
  <unicode hex="006D"/>
  <outline>
    <contour>
      <point x="60" y="0" type="curve" smooth="yes"/>
      <point x="102" y="0"/>
      <point x="110" y="24"/>
      <point x="112" y="45" type="curve" smooth="yes"/>
      <point x="142" y="302" type="line" smooth="yes"/>
      <point x="145" y="331"/>
      <point x="131" y="350"/>
      <point x="99" y="350" type="curve" smooth="yes"/>
      <point x="68" y="350"/>
      <point x="47" y="337"/>
      <point x="44" y="308" type="curve" smooth="yes"/>
      <point x="15" y="52" type="line" smooth="yes"/>
      <point x="12" y="24"/>
      <point x="24" y="0"/>
    </contour>
    <contour>
      <point x="253" y="0" type="curve" smooth="yes"/>
      <point x="288" y="0"/>
      <point x="300" y="24"/>
      <point x="303" y="46" type="curve" smooth="yes"/>
      <point x="326" y="229" type="line" smooth="yes"/>
      <point x="336" y="310"/>
      <point x="302" y="360"/>
      <point x="243" y="360" type="curve" smooth="yes"/>
      <point x="205" y="360"/>
      <point x="171" y="334"/>
      <point x="131" y="284" type="curve"/>
      <point x="118" y="166" type="line"/>
      <point x="168" y="247"/>
      <point x="203" y="270"/>
      <point x="216" y="270" type="curve" smooth="yes"/>
      <point x="227" y="270"/>
      <point x="232" y="258"/>
      <point x="229" y="235" type="curve" smooth="yes"/>
      <point x="207" y="52" type="line" smooth="yes"/>
      <point x="204" y="24"/>
      <point x="215" y="0"/>
    </contour>
    <contour>
      <point x="446" y="0" type="curve" smooth="yes"/>
      <point x="481" y="0"/>
      <point x="493" y="24"/>
      <point x="496" y="46" type="curve" smooth="yes"/>
      <point x="519" y="229" type="line" smooth="yes"/>
      <point x="529" y="310"/>
      <point x="495" y="360"/>
      <point x="436" y="360" type="curve" smooth="yes"/>
      <point x="398" y="360"/>
      <point x="364" y="334"/>
      <point x="324" y="284" type="curve"/>
      <point x="311" y="166" type="line"/>
      <point x="361" y="247"/>
      <point x="396" y="270"/>
      <point x="409" y="270" type="curve" smooth="yes"/>
      <point x="420" y="270"/>
      <point x="425" y="258"/>
      <point x="422" y="235" type="curve" smooth="yes"/>
      <point x="400" y="52" type="line" smooth="yes"/>
      <point x="397" y="24"/>
      <point x="408" y="0"/>
    </contour>
  </outline>
</glyph>
<glyph name="n" format="2">
	<advance width="377"/>
	<unicode hex="006E"/>
	<outline>
		<contour>
			<point x="45" y="0" type="curve" smooth="yes"/>
			<point x="87" y="0"/>
			<point x="95" y="24"/>
			<point x="97" y="45" type="curve" smooth="yes"/>
			<point x="127" y="302" type="line" smooth="yes"/>
			<point x="130" y="331"/>
			<point x="116" y="350"/>
			<point x="84" y="350" type="curve" smooth="yes"/>
			<point x="53" y="350"/>
			<point x="32" y="337"/>
			<point x="29" y="308" type="curve" smooth="yes"/>
			<point x="0" y="52" type="line" smooth="yes"/>
			<point x="-3" y="24"/>
			<point x="9" y="0"/>
		</contour>
		<contour>
			<point x="233" y="0" type="curve" smooth="yes"/>
			<point x="268" y="0"/>
			<point x="280" y="24"/>
			<point x="283" y="46" type="curve" smooth="yes"/>
			<point x="305" y="224" type="line" smooth="yes"/>
			<point x="313" y="287"/>
			<point x="284" y="355"/>
			<point x="214" y="355" type="curve" smooth="yes"/>
			<point x="175" y="355"/>
			<point x="145" y="328"/>
			<point x="118" y="294" type="curve"/>
			<point x="103" y="166" type="line"/>
			<point x="153" y="247"/>
			<point x="186" y="265"/>
			<point x="196" y="265" type="curve" smooth="yes"/>
			<point x="207" y="265"/>
			<point x="210" y="248"/>
			<point x="208" y="230" type="curve" smooth="yes"/>
			<point x="187" y="52" type="line" smooth="yes"/>
			<point x="184" y="24"/>
			<point x="195" y="0"/>
		</contour>
	</outline>
</glyph>
<glyph name="o" format="2">
	<advance width="336"/>
	<unicode hex="006F"/>
	<outline>
		<contour>
			<point x="115" y="-1" type="curve" smooth="yes"/>
			<point x="215" y="-1"/>
			<point x="267" y="91"/>
			<point x="276" y="173" type="curve" smooth="yes"/>
			<point x="285" y="261"/>
			<point x="246" y="350"/>
			<point x="150" y="350" type="curve" smooth="yes"/>
			<point x="71" y="350"/>
			<point x="4" y="294"/>
			<point x="-8" y="179" type="curve" smooth="yes"/>
			<point x="-17" y="91"/>
			<point x="19" y="-1"/>
		</contour>
		<contour>
			<point x="119" y="89" type="curve" smooth="yes"/>
			<point x="90" y="89"/>
			<point x="84" y="118"/>
			<point x="90" y="170" type="curve" smooth="yes"/>
			<point x="97" y="237"/>
			<point x="118" y="260"/>
			<point x="149" y="260" type="curve" smooth="yes"/>
			<point x="178" y="260"/>
			<point x="183" y="218"/>
			<point x="178" y="181" type="curve" smooth="yes"/>
			<point x="171" y="117"/>
			<point x="143" y="89"/>
		</contour>
	</outline>
</glyph>
<glyph name="p" format="2">
	<advance width="372"/>
	<unicode hex="0070"/>
	<outline>
		<contour>
			<point x="59" y="167" type="curve"/>
			<point x="48" y="54" type="line"/>
			<point x="79" y="22"/>
			<point x="117" y="-1"/>
			<point x="156" y="-1" type="curve" smooth="yes"/>
			<point x="235" y="-1"/>
			<point x="301" y="56"/>
			<point x="313" y="171" type="curve" smooth="yes"/>
			<point x="322" y="259"/>
			<point x="294" y="354"/>
			<point x="197" y="354" type="curve" smooth="yes"/>
			<point x="142" y="354"/>
			<point x="99" y="285"/>
			<point x="75" y="253" type="curve"/>
			<point x="51" y="88" type="line"/>
			<point x="105" y="88" type="line"/>
			<point x="109" y="113"/>
			<point x="112" y="136"/>
			<point x="112" y="139" type="curve" smooth="yes"/>
			<point x="124" y="235"/>
			<point x="163" y="264"/>
			<point x="187" y="264" type="curve" smooth="yes"/>
			<point x="212" y="264"/>
			<point x="222" y="231"/>
			<point x="216" y="180" type="curve" smooth="yes"/>
			<point x="209" y="114"/>
			<point x="187" y="89"/>
			<point x="156" y="89" type="curve" smooth="yes"/>
			<point x="136" y="89"/>
			<point x="113" y="84"/>
		</contour>
		<contour>
			<point x="82" y="350" type="curve" smooth="yes"/>
			<point x="53" y="350"/>
			<point x="31" y="326"/>
			<point x="27" y="293" type="curve" smooth="yes"/>
			<point x="-31" y="-247" type="line" smooth="yes"/>
			<point x="-34" y="-275"/>
			<point x="-19" y="-300"/>
			<point x="16" y="-300" type="curve" smooth="yes"/>
			<point x="46" y="-300"/>
			<point x="66" y="-279"/>
			<point x="69" y="-252" type="curve" smooth="yes"/>
			<point x="128" y="293" type="line" smooth="yes"/>
			<point x="132" y="329"/>
			<point x="115" y="350"/>
		</contour>
	</outline>
</glyph>
<glyph name="q" format="2">
  <advance width="382"/>
  <unicode hex="0071"/>
  <outline>
    <contour>
      <point x="126" y="-1.0" type="curve" smooth="yes"/>
      <point x="192" y="-1"/>
      <point x="216" y="75"/>
      <point x="239" y="114" type="curve"/>
      <point x="228" y="262" type="line"/>
      <point x="207" y="130"/>
      <point x="178.0" y="89.0"/>
      <point x="145" y="89" type="curve" smooth="yes"/>
      <point x="120" y="89"/>
      <point x="110" y="119"/>
      <point x="116" y="170" type="curve" smooth="yes"/>
      <point x="123" y="236"/>
      <point x="145" y="270"/>
      <point x="176" y="270" type="curve" smooth="yes"/>
      <point x="198" y="270"/>
      <point x="230" y="259"/>
      <point x="272" y="198" type="curve"/>
      <point x="284" y="303" type="line"/>
      <point x="259" y="337"/>
      <point x="211" y="360"/>
      <point x="177" y="360" type="curve" smooth="yes"/>
      <point x="98" y="360"/>
      <point x="31" y="294"/>
      <point x="19" y="179" type="curve" smooth="yes"/>
      <point x="10" y="91"/>
      <point x="40" y="-1"/>
    </contour>
    <contour>
      <point x="220" y="-300" type="curve" smooth="yes"/>
      <point x="234" y="-300"/>
      <point x="246" y="-295"/>
      <point x="255" y="-288" type="curve" smooth="yes"/>
      <point x="349" y="-209" type="line" smooth="yes"/>
      <point x="364" y="-197"/>
      <point x="375" y="-183"/>
      <point x="377" y="-170" type="curve" smooth="yes"/>
      <point x="381" y="-145"/>
      <point x="361" y="-126"/>
      <point x="336" y="-125" type="curve" smooth="yes"/>
      <point x="323" y="-124"/>
      <point x="307" y="-129"/>
      <point x="291" y="-142" type="curve" smooth="yes"/>
      <point x="284" y="-148" type="line"/>
      <point x="332" y="293" type="line" smooth="yes"/>
      <point x="336" y="329"/>
      <point x="319" y="350"/>
      <point x="286" y="350" type="curve" smooth="yes"/>
      <point x="257" y="350"/>
      <point x="235" y="326"/>
      <point x="231" y="293" type="curve" smooth="yes"/>
      <point x="173" y="-247" type="line" smooth="yes"/>
      <point x="170" y="-275"/>
      <point x="185" y="-300"/>
    </contour>
  </outline>
</glyph>
<glyph name="r" format="2">
  <advance width="345"/>
  <unicode hex="0072"/>
  <outline>
    <contour>
      <point x="60" y="0" type="curve" smooth="yes"/>
      <point x="102" y="0"/>
      <point x="110" y="24"/>
      <point x="112" y="45" type="curve" smooth="yes"/>
      <point x="142" y="302" type="line" smooth="yes"/>
      <point x="145" y="331"/>
      <point x="131" y="350"/>
      <point x="99" y="350" type="curve" smooth="yes"/>
      <point x="68" y="350"/>
      <point x="47" y="337"/>
      <point x="44" y="308" type="curve" smooth="yes"/>
      <point x="15" y="52" type="line" smooth="yes"/>
      <point x="12" y="24"/>
      <point x="24" y="0"/>
    </contour>
    <contour>
      <point x="296" y="226" type="curve" smooth="yes"/>
      <point x="319" y="234"/>
      <point x="327" y="253"/>
      <point x="321" y="285" type="curve" smooth="yes"/>
      <point x="311" y="326"/>
      <point x="285" y="360"/>
      <point x="234" y="360" type="curve" smooth="yes"/>
      <point x="170" y="360"/>
      <point x="133" y="297"/>
      <point x="95" y="202" type="curve"/>
      <point x="85" y="71" type="line"/>
      <point x="159" y="224"/>
      <point x="198" y="274"/>
      <point x="218" y="274.0" type="curve" smooth="yes"/>
      <point x="226" y="274.0"/>
      <point x="231" y="270"/>
      <point x="234" y="258" type="curve" smooth="yes"/>
      <point x="242" y="226"/>
      <point x="269" y="217"/>
    </contour>
  </outline>
</glyph>
<glyph name="s" format="2">
	<advance width="304"/>
	<unicode hex="0073"/>
	<outline>
		<contour>
			<point x="122" y="-9" type="curve" smooth="yes"/>
			<point x="174" y="-9"/>
			<point x="228" y="21"/>
			<point x="238" y="82" type="curve" smooth="yes"/>
			<point x="246" y="130"/>
			<point x="223" y="167"/>
			<point x="201" y="185" type="curve" smooth="yes"/>
			<point x="178" y="204"/>
			<point x="151" y="221"/>
			<point x="127" y="234" type="curve" smooth="yes"/>
			<point x="99" y="251"/>
			<point x="98" y="252"/>
			<point x="99" y="255" type="curve" smooth="yes"/>
			<point x="100" y="259"/>
			<point x="101" y="259"/>
			<point x="120" y="259" type="curve" smooth="yes"/>
			<point x="144" y="259"/>
			<point x="160" y="251"/>
			<point x="174" y="241" type="curve" smooth="yes"/>
			<point x="203" y="221"/>
			<point x="231" y="225"/>
			<point x="246" y="248" type="curve" smooth="yes"/>
			<point x="262" y="271"/>
			<point x="253" y="305"/>
			<point x="220" y="327" type="curve" smooth="yes"/>
			<point x="187" y="348"/>
			<point x="153" y="356"/>
			<point x="126" y="356" type="curve" smooth="yes"/>
			<point x="70" y="356"/>
			<point x="22" y="336"/>
			<point x="5" y="283" type="curve" smooth="yes"/>
			<point x="-10" y="227"/>
			<point x="27" y="181"/>
			<point x="73" y="153" type="curve" smooth="yes"/>
			<point x="99" y="137"/>
			<point x="116" y="128"/>
			<point x="130" y="117" type="curve" smooth="yes"/>
			<point x="139" y="110"/>
			<point x="143" y="105"/>
			<point x="142" y="98" type="curve" smooth="yes"/>
			<point x="140" y="89"/>
			<point x="140" y="89"/>
			<point x="124" y="89" type="curve" smooth="yes"/>
			<point x="99" y="89"/>
			<point x="74" y="104"/>
			<point x="63" y="114" type="curve" smooth="yes"/>
			<point x="39" y="133"/>
			<point x="9" y="128"/>
			<point x="-9" y="102" type="curve" smooth="yes"/>
			<point x="-28" y="75"/>
			<point x="-13" y="49"/>
			<point x="13" y="30" type="curve" smooth="yes"/>
			<point x="32" y="16"/>
			<point x="77" y="-9"/>
		</contour>
	</outline>
</glyph>
<glyph name="t" format="2">
	<advance width="247"/>
	<unicode hex="0074"/>
	<guideline x="309" y="568" angle="0"/>
	<outline>
		<contour>
			<point x="82" y="0" type="curve" smooth="yes"/>
			<point x="108" y="0"/>
			<point x="130" y="15"/>
			<point x="133" y="45" type="curve" smooth="yes"/>
			<point x="184" y="513" type="line" smooth="yes"/>
			<point x="188" y="546"/>
			<point x="163" y="568"/>
			<point x="134" y="568" type="curve" smooth="yes"/>
			<point x="111" y="568"/>
			<point x="86" y="553"/>
			<point x="83" y="525" type="curve" smooth="yes"/>
			<point x="32" y="51" type="line" smooth="yes"/>
			<point x="29" y="20"/>
			<point x="54" y="0"/>
		</contour>
		<contour>
			<point x="-33" y="308" type="curve" smooth="yes"/>
			<point x="-33" y="280"/>
			<point x="-10" y="261"/>
			<point x="18" y="261" type="curve" smooth="yes"/>
			<point x="205" y="261" type="line" smooth="yes"/>
			<point x="241" y="261"/>
			<point x="253" y="287"/>
			<point x="253" y="308" type="curve" smooth="yes"/>
			<point x="253" y="337"/>
			<point x="230" y="354"/>
			<point x="202" y="354" type="curve" smooth="yes"/>
			<point x="16" y="354" type="line" smooth="yes"/>
			<point x="-17" y="354"/>
			<point x="-33" y="334"/>
		</contour>
	</outline>
</glyph>
<glyph name="u" format="2">
	<advance width="381"/>
	<unicode hex="0075"/>
	<outline>
		<contour>
			<point x="100" y="-4" type="curve" smooth="yes"/>
			<point x="151" y="-4"/>
			<point x="186" y="36"/>
			<point x="218" y="83" type="curve"/>
			<point x="237" y="276" type="line"/>
			<point x="186" y="132"/>
			<point x="134" y="86"/>
			<point x="116" y="86" type="curve" smooth="yes"/>
			<point x="101" y="86"/>
			<point x="96" y="103"/>
			<point x="98" y="120" type="curve" smooth="yes"/>
			<point x="118" y="295" type="line" smooth="yes"/>
			<point x="121" y="321"/>
			<point x="110" y="350"/>
			<point x="71" y="350" type="curve" smooth="yes"/>
			<point x="39" y="350"/>
			<point x="25" y="327"/>
			<point x="22" y="302" type="curve" smooth="yes"/>
			<point x="1" y="126" type="line" smooth="yes"/>
			<point x="-7" y="55"/>
			<point x="31" y="-4"/>
		</contour>
		<contour>
			<point x="231" y="0" type="curve" smooth="yes"/>
			<point x="262" y="0"/>
			<point x="282" y="13"/>
			<point x="285" y="43" type="curve" smooth="yes"/>
			<point x="312" y="294" type="line" smooth="yes"/>
			<point x="315" y="323"/>
			<point x="300" y="350"/>
			<point x="266" y="350" type="curve" smooth="yes"/>
			<point x="234" y="350"/>
			<point x="218" y="327"/>
			<point x="215" y="303" type="curve" smooth="yes"/>
			<point x="187" y="49" type="line" smooth="yes"/>
			<point x="183" y="17"/>
			<point x="201" y="0"/>
		</contour>
	</outline>
</glyph>
<glyph name="v" format="2">
  <advance width="342"/>
  <unicode hex="0076"/>
  <outline>
    <contour>
      <point x="84" y="38" type="line" smooth="yes"/>
      <point x="91" y="11"/>
      <point x="111" y="-1.0"/>
      <point x="132" y="-1" type="curve" smooth="yes"/>
      <point x="148.0" y="-1.0"/>
      <point x="169" y="7"/>
      <point x="181" y="31" type="curve" smooth="yes"/>
      <point x="307" y="276" type="line" smooth="yes"/>
      <point x="326" y="313"/>
      <point x="302" y="350"/>
      <point x="268" y="350" type="curve" smooth="yes"/>
      <point x="248" y="350"/>
      <point x="228" y="341"/>
      <point x="220" y="323" type="curve" smooth="yes"/>
      <point x="133" y="126" type="line"/>
      <point x="152" y="120" type="line"/>
      <point x="117" y="313" type="line" smooth="yes"/>
      <point x="113" y="334"/>
      <point x="93" y="349"/>
      <point x="71" y="349" type="curve" smooth="yes"/>
      <point x="38" y="349"/>
      <point x="14" y="320"/>
      <point x="24" y="280" type="curve" smooth="yes"/>
    </contour>
  </outline>
</glyph>
<glyph name="w" format="2">
  <advance width="500"/>
  <unicode hex="0077"/>
  <outline>
    <contour>
      <point x="74" y="39" type="line" smooth="yes"/>
      <point x="79" y="14"/>
      <point x="99" y="-1"/>
      <point x="120" y="-1" type="curve" smooth="yes"/>
      <point x="145" y="-1"/>
      <point x="163" y="12"/>
      <point x="172" y="32" type="curve" smooth="yes"/>
      <point x="235" y="175" type="line"/>
      <point x="226" y="177" type="line"/>
      <point x="251" y="38" type="line" smooth="yes"/>
      <point x="255" y="14"/>
      <point x="274" y="-1"/>
      <point x="298" y="-1" type="curve" smooth="yes"/>
      <point x="319" y="-1"/>
      <point x="338" y="11"/>
      <point x="348" y="31" type="curve" smooth="yes"/>
      <point x="466" y="281" type="line" smooth="yes"/>
      <point x="484" y="319"/>
      <point x="461" y="351"/>
      <point x="427" y="355" type="curve" smooth="yes"/>
      <point x="407" y="357"/>
      <point x="387" y="346"/>
      <point x="379" y="328" type="curve" smooth="yes"/>
      <point x="310" y="168" type="line"/>
      <point x="319" y="166" type="line"/>
      <point x="293" y="319" type="line" smooth="yes"/>
      <point x="289" y="342"/>
      <point x="270" y="355"/>
      <point x="247" y="355" type="curve" smooth="yes"/>
      <point x="229" y="355"/>
      <point x="210" y="344"/>
      <point x="202" y="327" type="curve" smooth="yes"/>
      <point x="133" y="169" type="line"/>
      <point x="142" y="167" type="line"/>
      <point x="116" y="319" type="line" smooth="yes"/>
      <point x="112" y="340"/>
      <point x="93" y="355"/>
      <point x="71" y="355" type="curve" smooth="yes"/>
      <point x="38" y="355"/>
      <point x="16" y="326"/>
      <point x="24" y="286" type="curve" smooth="yes"/>
    </contour>
  </outline>
</glyph>
<glyph name="x" format="2">
	<advance width="351"/>
	<unicode hex="0078"/>
	<outline>
		<contour>
			<point x="24" y="-5" type="curve" smooth="yes"/>
			<point x="39" y="-5"/>
			<point x="52" y="2"/>
			<point x="67" y="22" type="curve" smooth="yes"/>
			<point x="156" y="140" type="line"/>
			<point x="159" y="144" type="line"/>
			<point x="254" y="272" type="line" smooth="yes"/>
			<point x="287" y="313"/>
			<point x="262" y="355"/>
			<point x="220" y="355" type="curve" smooth="yes"/>
			<point x="206" y="355"/>
			<point x="190" y="350"/>
			<point x="179" y="335" type="curve" smooth="yes"/>
			<point x="90" y="215" type="line"/>
			<point x="87" y="210" type="line"/>
			<point x="-10" y="81" type="line" smooth="yes"/>
			<point x="-52" y="18"/>
			<point x="-4" y="-5"/>
		</contour>
		<contour>
			<point x="193" y="-5" type="curve" smooth="yes"/>
			<point x="238" y="-5"/>
			<point x="254" y="35"/>
			<point x="231" y="78" type="curve" smooth="yes"/>
			<point x="162" y="206" type="line"/>
			<point x="97" y="327" type="line" smooth="yes"/>
			<point x="87" y="345"/>
			<point x="69" y="355"/>
			<point x="52" y="355" type="curve" smooth="yes"/>
			<point x="8" y="355"/>
			<point x="-8" y="318"/>
			<point x="12" y="279" type="curve" smooth="yes"/>
			<point x="84" y="145" type="line"/>
			<point x="148" y="28" type="line" smooth="yes"/>
			<point x="159" y="5"/>
			<point x="176" y="-5"/>
		</contour>
	</outline>
</glyph>
<glyph name="y" format="2">
  <advance width="389"/>
  <unicode hex="0079"/>
  <outline>
    <contour>
      <point x="106" y="-1" type="curve" smooth="yes"/>
      <point x="144" y="-1"/>
      <point x="183" y="16"/>
      <point x="223" y="66" type="curve"/>
      <point x="236" y="184" type="line"/>
      <point x="186" y="103"/>
      <point x="146" y="89"/>
      <point x="133" y="89" type="curve" smooth="yes"/>
      <point x="122" y="89"/>
      <point x="118" y="92"/>
      <point x="120" y="115" type="curve" smooth="yes"/>
      <point x="142" y="298" type="line" smooth="yes"/>
      <point x="145" y="326"/>
      <point x="134" y="350"/>
      <point x="96" y="350" type="curve" smooth="yes"/>
      <point x="61" y="350"/>
      <point x="49" y="326"/>
      <point x="46" y="304" type="curve" smooth="yes"/>
      <point x="23" y="121" type="line" smooth="yes"/>
      <point x="12" y="40"/>
      <point x="47" y="-1"/>
    </contour>
    <contour>
      <point x="295" y="-120" type="curve"/>
      <point x="340" y="299" type="line" smooth="yes"/>
      <point x="344" y="332"/>
      <point x="320" y="350"/>
      <point x="294" y="350" type="curve" smooth="yes"/>
      <point x="269" y="350"/>
      <point x="245" y="337"/>
      <point x="242" y="308" type="curve" smooth="yes"/>
      <point x="197" y="-114" type="line"/>
      <point x="190" y="-184"/>
      <point x="165" y="-210"/>
      <point x="127" y="-210" type="curve" smooth="yes"/>
      <point x="106" y="-210"/>
      <point x="85" y="-200"/>
      <point x="68" y="-183" type="curve" smooth="yes"/>
      <point x="57" y="-172"/>
      <point x="40" y="-158"/>
      <point x="14" y="-175" type="curve" smooth="yes"/>
      <point x="-9" y="-190"/>
      <point x="-16" y="-222"/>
      <point x="5" y="-247" type="curve" smooth="yes"/>
      <point x="25" y="-272"/>
      <point x="68" y="-300"/>
      <point x="121" y="-300" type="curve" smooth="yes"/>
      <point x="214" y="-300"/>
      <point x="282" y="-240"/>
    </contour>
  </outline>
</glyph>
<glyph name="z" format="2">
  <advance width="350"/>
  <unicode hex="007A"/>
  <outline>
    <contour>
      <point x="65" y="0" type="curve"/>
      <point x="86" y="13" type="line"/>
      <point x="290" y="276" type="line" smooth="yes"/>
      <point x="319" y="313"/>
      <point x="288" y="350"/>
      <point x="244" y="350" type="curve"/>
      <point x="219" y="341" type="line"/>
      <point x="16" y="77" type="line" smooth="yes"/>
      <point x="-12" y="41"/>
      <point x="19" y="0"/>
    </contour>
    <contour>
      <point x="226" y="0" type="line" smooth="yes"/>
      <point x="258" y="0"/>
      <point x="274" y="16"/>
      <point x="274" y="44" type="curve" smooth="yes"/>
      <point x="274" y="65"/>
      <point x="259" y="90"/>
      <point x="224" y="90" type="curve" smooth="yes"/>
      <point x="126" y="90" type="line"/>
      <point x="59" y="0" type="line"/>
    </contour>
    <contour>
      <point x="84" y="260" type="curve" smooth="yes"/>
      <point x="181" y="260" type="line"/>
      <point x="250" y="350" type="line"/>
      <point x="81" y="350" type="line" smooth="yes"/>
      <point x="44" y="350"/>
      <point x="32" y="328"/>
      <point x="32" y="306" type="curve" smooth="yes"/>
      <point x="32" y="285"/>
      <point x="48" y="260"/>
    </contour>
  </outline>
</glyph>
<glyph name="bar" format="2">
	<advance width="261"/>
	<unicode hex="007C"/>
	<outline>
		<contour>
			<point x="68" y="-302" type="curve" smooth="yes"/>
			<point x="102" y="-302"/>
			<point x="113" y="-281"/>
			<point x="116" y="-260" type="curve"/>
			<point x="213" y="645" type="line" smooth="yes"/>
			<point x="216" y="681"/>
			<point x="192" y="702"/>
			<point x="164" y="702" type="curve" smooth="yes"/>
			<point x="142" y="702"/>
			<point x="117" y="685"/>
			<point x="114" y="657" type="curve" smooth="yes"/>
			<point x="16" y="-250" type="line" smooth="yes"/>
			<point x="12" y="-278"/>
			<point x="36" y="-302"/>
		</contour>
	</outline>
</glyph>
<glyph name="braceright" format="2">
  <advance width="360"/>
  <unicode hex="007D"/>
  <outline>
    <contour>
      <point x="87" y="-291" type="curve"/>
      <point x="120" y="-273"/>
      <point x="169" y="-235"/>
      <point x="188" y="-179" type="curve" smooth="yes"/>
      <point x="209" y="-116"/>
      <point x="197" y="-11"/>
      <point x="204" y="40" type="curve" smooth="yes"/>
      <point x="208" y="66"/>
      <point x="221" y="83"/>
      <point x="239" y="107" type="curve" smooth="yes"/>
      <point x="251" y="123"/>
      <point x="262" y="141"/>
      <point x="266" y="159" type="curve" smooth="yes"/>
      <point x="269" y="174"/>
      <point x="266" y="182"/>
      <point x="252" y="205" type="curve" smooth="yes"/>
      <point x="237" y="231"/>
      <point x="232" y="253"/>
      <point x="233" y="278" type="curve"/>
      <point x="239" y="332"/>
      <point x="279" y="430"/>
      <point x="273" y="497" type="curve" smooth="yes"/>
      <point x="268" y="558"/>
      <point x="216" y="607"/>
      <point x="189" y="630" type="curve" smooth="yes"/>
      <point x="167" y="648"/>
      <point x="135" y="662"/>
      <point x="118" y="637" type="curve" smooth="yes"/>
      <point x="105" y="618"/>
      <point x="108" y="598"/>
      <point x="131" y="580" type="curve" smooth="yes"/>
      <point x="156" y="562"/>
      <point x="185" y="536"/>
      <point x="190" y="493" type="curve" smooth="yes"/>
      <point x="192" y="437"/>
      <point x="152" y="343"/>
      <point x="146" y="289" type="curve" smooth="yes"/>
      <point x="142" y="241"/>
      <point x="149" y="202"/>
      <point x="174" y="167" type="curve"/>
      <point x="141" y="139"/>
      <point x="126" y="101"/>
      <point x="119" y="55" type="curve" smooth="yes"/>
      <point x="111" y="0"/>
      <point x="123" y="-99"/>
      <point x="108" y="-151" type="curve" smooth="yes"/>
      <point x="93" y="-195"/>
      <point x="74" y="-213"/>
      <point x="46" y="-227" type="curve" smooth="yes"/>
      <point x="22" y="-240"/>
      <point x="10" y="-254"/>
      <point x="18" y="-275" type="curve" smooth="yes"/>
      <point x="27" y="-300"/>
      <point x="61" y="-309"/>
    </contour>
  </outline>
</glyph>
<glyph name="exclamdown" format="2">
  <advance width="299"/>
  <unicode hex="00A1"/>
  <outline>
    <contour>
      <point x="134" y="0" type="curve" smooth="yes"/>
      <point x="153" y="0"/>
      <point x="183" y="9"/>
      <point x="187" y="43" type="curve" smooth="yes"/>
      <point x="228" y="410" type="line" smooth="yes"/>
      <point x="233" y="457"/>
      <point x="213" y="474"/>
      <point x="182" y="474" type="curve" smooth="yes"/>
      <point x="163" y="474"/>
      <point x="133" y="465"/>
      <point x="129" y="430" type="curve" smooth="yes"/>
      <point x="88" y="63" type="line" smooth="yes"/>
      <point x="83" y="17"/>
      <point x="103" y="0"/>
    </contour>
    <contour>
      <point x="196" y="524" type="curve" smooth="yes"/>
      <point x="231" y="524"/>
      <point x="258" y="552"/>
      <point x="258" y="585" type="curve" smooth="yes"/>
      <point x="258" y="620"/>
      <point x="231" y="650"/>
      <point x="196" y="650" type="curve" smooth="yes"/>
      <point x="163" y="650"/>
      <point x="133" y="620"/>
      <point x="133" y="585" type="curve" smooth="yes"/>
      <point x="133" y="552"/>
      <point x="163" y="524"/>
    </contour>
  </outline>
</glyph>
<glyph name="brokenbar" format="2">
  <advance width="232"/>
  <unicode hex="00A6"/>
  <outline>
    <contour>
      <point x="143" y="111" type="line" smooth="yes"/>
      <point x="146" y="141"/>
      <point x="123" y="163"/>
      <point x="96" y="163" type="curve" smooth="yes"/>
      <point x="73" y="163"/>
      <point x="47" y="146"/>
      <point x="44" y="119" type="curve" smooth="yes"/>
      <point x="4" y="-248" type="line" smooth="yes"/>
      <point x="1" y="-276"/>
      <point x="24" y="-300"/>
      <point x="56" y="-300" type="curve" smooth="yes"/>
      <point x="90" y="-300"/>
      <point x="102" y="-279"/>
      <point x="104" y="-258" type="curve" smooth="yes"/>
    </contour>
    <contour>
      <point x="200" y="643" type="line" smooth="yes"/>
      <point x="204" y="679"/>
      <point x="179" y="700"/>
      <point x="151" y="700" type="curve" smooth="yes"/>
      <point x="129" y="700"/>
      <point x="104" y="683"/>
      <point x="101" y="655" type="curve" smooth="yes"/>
      <point x="62" y="290" type="line" smooth="yes"/>
      <point x="58" y="259"/>
      <point x="83" y="236"/>
      <point x="111" y="238" type="curve" smooth="yes"/>
      <point x="134" y="239"/>
      <point x="158" y="256"/>
      <point x="161" y="282" type="curve" smooth="yes"/>
    </contour>
  </outline>
</glyph>
<glyph name="degree" format="2">
	<advance width="348"/>
	<unicode hex="00B0"/>
	<outline>
		<contour>
			<point x="193" y="372" type="curve" smooth="yes"/>
			<point x="270" y="372"/>
			<point x="309" y="445"/>
			<point x="318" y="514" type="curve" smooth="yes"/>
			<point x="325" y="585"/>
			<point x="296" y="654"/>
			<point x="223" y="654" type="curve" smooth="yes"/>
			<point x="162" y="654"/>
			<point x="109" y="607"/>
			<point x="99" y="514" type="curve" smooth="yes"/>
			<point x="92" y="443"/>
			<point x="121" y="372"/>
		</contour>
		<contour>
			<point x="203" y="459" type="curve" smooth="yes"/>
			<point x="179" y="459"/>
			<point x="172" y="485"/>
			<point x="175" y="513" type="curve" smooth="yes"/>
			<point x="178" y="552"/>
			<point x="194" y="569"/>
			<point x="215" y="569" type="curve" smooth="yes"/>
			<point x="240" y="569"/>
			<point x="244" y="536"/>
			<point x="241" y="515" type="curve" smooth="yes"/>
			<point x="238" y="478"/>
			<point x="221" y="459"/>
		</contour>
	</outline>
</glyph>
<glyph name="plusminus" format="2">
  <advance width="412"/>
  <unicode hex="00B1"/>
  <outline>
    <contour>
      <point x="203" y="124" type="curve" smooth="yes"/>
      <point x="221.0" y="124.0"/>
      <point x="241.0" y="132.0"/>
      <point x="248" y="161" type="curve" smooth="yes"/>
      <point x="302" y="383" type="line" smooth="yes"/>
      <point x="310.0" y="417.99999999999994"/>
      <point x="285.99999999999994" y="438.0"/>
      <point x="265" y="438" type="curve" smooth="yes"/>
      <point x="248.0" y="438.0"/>
      <point x="226.0" y="433.00000000000006"/>
      <point x="219" y="404" type="curve" smooth="yes"/>
      <point x="165" y="181" type="line"/>
      <point x="157.0" y="143.0"/>
      <point x="182.0" y="124.0"/>
    </contour>
    <contour>
      <point x="118" y="240" type="curve" smooth="yes"/>
      <point x="345" y="240" type="line" smooth="yes"/>
      <point x="379.0" y="240.0"/>
      <point x="391.0" y="264.0"/>
      <point x="391" y="283" type="curve" smooth="yes"/>
      <point x="391.0" y="303.0"/>
      <point x="379.0" y="326.0"/>
      <point x="345" y="326" type="curve" smooth="yes"/>
      <point x="118" y="326" type="line" smooth="yes"/>
      <point x="84.0" y="326.0"/>
      <point x="72.0" y="303.0"/>
      <point x="72" y="283" type="curve" smooth="yes"/>
      <point x="72.0" y="263.0"/>
      <point x="84.0" y="240.0"/>
    </contour>
    <contour>
      <point x="83" y="100" type="curve" smooth="yes"/>
      <point x="310" y="100" type="line" smooth="yes"/>
      <point x="344.0" y="100.0"/>
      <point x="356.0" y="124.00000000000001"/>
      <point x="356" y="143" type="curve" smooth="yes"/>
      <point x="356.0" y="163.0"/>
      <point x="344.0" y="186.0"/>
      <point x="310" y="186" type="curve" smooth="yes"/>
      <point x="83" y="186" type="line" smooth="yes"/>
      <point x="49.0" y="186.0"/>
      <point x="37.0" y="163.0"/>
      <point x="37" y="143" type="curve" smooth="yes"/>
      <point x="37.0" y="122.99999999999999"/>
      <point x="49.0" y="100.0"/>
    </contour>
  </outline>
</glyph>
<glyph name="periodcentered" format="2">
	<advance width="231"/>
	<unicode hex="00B7"/>
	<outline>
		<contour>
			<point x="98" y="121" type="curve" smooth="yes"/>
			<point x="127" y="121"/>
			<point x="154" y="148"/>
			<point x="154" y="178" type="curve" smooth="yes"/>
			<point x="154" y="208"/>
			<point x="128" y="231"/>
			<point x="99" y="231" type="curve" smooth="yes"/>
			<point x="68" y="231"/>
			<point x="44" y="206"/>
			<point x="44" y="178" type="curve" smooth="yes"/>
			<point x="44" y="150"/>
			<point x="67" y="121"/>
		</contour>
	</outline>
</glyph>
<glyph name="questiondown" format="2">
	<advance width="486"/>
	<unicode hex="00BF"/>
	<outline>
		<contour>
			<point x="325" y="386" type="line"/>
			<point x="150" y="398"/>
			<point x="76" y="296"/>
			<point x="61" y="160" type="curve" smooth="yes"/>
			<point x="53" y="76"/>
			<point x="129" y="1"/>
			<point x="224" y="1" type="curve" smooth="yes"/>
			<point x="339" y="1"/>
			<point x="406" y="67"/>
			<point x="417" y="159" type="curve" smooth="yes"/>
			<point x="419" y="194"/>
			<point x="405" y="212"/>
			<point x="384" y="217" type="curve" smooth="yes"/>
			<point x="359" y="224"/>
			<point x="325" y="208"/>
			<point x="322" y="175" type="curve" smooth="yes"/>
			<point x="318" y="128"/>
			<point x="296" y="89"/>
			<point x="236" y="89" type="curve" smooth="yes"/>
			<point x="186" y="89"/>
			<point x="156" y="108"/>
			<point x="161" y="148" type="curve" smooth="yes"/>
			<point x="165" y="192"/>
			<point x="181" y="300"/>
			<point x="303" y="289" type="curve"/>
		</contour>
		<contour>
			<point x="360" y="428" type="line" smooth="yes"/>
			<point x="363" y="454"/>
			<point x="343" y="473"/>
			<point x="319" y="479" type="curve" smooth="yes"/>
			<point x="292" y="484"/>
			<point x="264" y="470"/>
			<point x="260" y="435" type="curve" smooth="yes"/>
			<point x="249" y="333" type="line" smooth="yes"/>
			<point x="247" y="310"/>
			<point x="272" y="289"/>
			<point x="303" y="289" type="curve" smooth="yes"/>
			<point x="325" y="289"/>
			<point x="347" y="304"/>
			<point x="349" y="326" type="curve" smooth="yes"/>
		</contour>
		<contour>
			<point x="324" y="540" type="curve" smooth="yes"/>
			<point x="354" y="540"/>
			<point x="380" y="568"/>
			<point x="380" y="597" type="curve" smooth="yes"/>
			<point x="380" y="625"/>
			<point x="353" y="650"/>
			<point x="324" y="650" type="curve" smooth="yes"/>
			<point x="294" y="650"/>
			<point x="270" y="625"/>
			<point x="270" y="598" type="curve" smooth="yes"/>
			<point x="270" y="568"/>
			<point x="293" y="540"/>
		</contour>
	</outline>
</glyph>
<glyph name="multiply" format="2">
  <advance width="412"/>
  <unicode hex="00D7"/>
  <outline>
    <contour>
      <point x="123" y="88" type="curve" smooth="yes"/>
      <point x="361" y="300" type="line" smooth="yes"/>
      <point x="391.0" y="327.0"/>
      <point x="382.0" y="348.0"/>
      <point x="366" y="364" type="curve" smooth="yes"/>
      <point x="352.0" y="378.0"/>
      <point x="328.0" y="385.0"/>
      <point x="303" y="363" type="curve" smooth="yes"/>
      <point x="63" y="150" type="line" smooth="yes"/>
      <point x="40.0" y="130.0"/>
      <point x="43.0" y="105.0"/>
      <point x="58" y="89" type="curve" smooth="yes"/>
      <point x="72.99999999999999" y="73.0"/>
      <point x="94.0" y="63.0"/>
    </contour>
    <contour>
      <point x="260" y="92" type="line" smooth="yes"/>
      <point x="280.99999999999994" y="65.0"/>
      <point x="306.0" y="70.0"/>
      <point x="322" y="82" type="curve" smooth="yes"/>
      <point x="341.0" y="96.0"/>
      <point x="349.0" y="118.00000000000001"/>
      <point x="330" y="144" type="curve"/>
      <point x="169" y="354" type="line" smooth="yes"/>
      <point x="145.99999999999997" y="385.0"/>
      <point x="120.99999999999999" y="379.0"/>
      <point x="106" y="368" type="curve" smooth="yes"/>
      <point x="88.0" y="354.0"/>
      <point x="81.0" y="327.0"/>
      <point x="98" y="305" type="curve" smooth="yes"/>
    </contour>
  </outline>
</glyph>
<glyph name="divide" format="2">
	<advance width="440"/>
	<unicode hex="00F7"/>
	<outline>
		<contour>
			<point x="317" y="154" type="line" smooth="yes"/>
			<point x="383" y="154"/>
			<point x="380" y="241"/>
			<point x="311" y="241" type="curve" smooth="yes"/>
			<point x="94" y="241" type="line" smooth="yes"/>
			<point x="25" y="241"/>
			<point x="34" y="154"/>
			<point x="100" y="154" type="curve" smooth="yes"/>
		</contour>
		<contour>
			<point x="196" y="16" type="curve" smooth="yes"/>
			<point x="226" y="16"/>
			<point x="251" y="40"/>
			<point x="249" y="69" type="curve" smooth="yes"/>
			<point x="247" y="100"/>
			<point x="217" y="122"/>
			<point x="188" y="122" type="curve" smooth="yes"/>
			<point x="157" y="122"/>
			<point x="135" y="98"/>
			<point x="137" y="69" type="curve" smooth="yes"/>
			<point x="139" y="40"/>
			<point x="166" y="16"/>
		</contour>
		<contour>
			<point x="224" y="273" type="curve" smooth="yes"/>
			<point x="254" y="273"/>
			<point x="279" y="297"/>
			<point x="277" y="327" type="curve" smooth="yes"/>
			<point x="275" y="356"/>
			<point x="246" y="379"/>
			<point x="216" y="379" type="curve" smooth="yes"/>
			<point x="186" y="379"/>
			<point x="163" y="355"/>
			<point x="165" y="327" type="curve" smooth="yes"/>
			<point x="167" y="298"/>
			<point x="194" y="273"/>
		</contour>
	</outline>
</glyph>
<glyph name="tilde" format="2">
  <advance width="500"/>
  <unicode hex="02DC"/>
  <outline>
    <contour>
      <point x="157" y="420.0" type="curve" smooth="yes"/>
      <point x="170.0" y="406.0"/>
      <point x="191.0" y="406"/>
      <point x="206" y="421.0" type="curve" smooth="yes"/>
      <point x="215" y="430.0"/>
      <point x="229.0" y="436.0"/>
      <point x="241" y="436.0" type="curve" smooth="yes"/>
      <point x="263.0" y="436.0"/>
      <point x="293.0" y="409.0"/>
      <point x="323" y="409.0" type="curve" smooth="yes"/>
      <point x="354.0" y="409.0"/>
      <point x="387.0" y="423.0"/>
      <point x="410" y="446.0" type="curve" smooth="yes"/>
      <point x="426.0" y="463.0"/>
      <point x="427.0" y="487.0"/>
      <point x="413" y="503.0" type="curve" smooth="yes"/>
      <point x="399.0" y="518.0"/>
      <point x="378.0" y="517.0"/>
      <point x="364" y="502.0" type="curve" smooth="yes"/>
      <point x="355.0" y="493.0"/>
      <point x="342.0" y="487.0"/>
      <point x="330" y="487.0" type="curve" smooth="yes"/>
      <point x="308.0" y="487.0"/>
      <point x="279" y="514.0"/>
      <point x="247" y="514.0" type="curve" smooth="yes"/>
      <point x="216.0" y="514.0"/>
      <point x="183.0" y="500.0"/>
      <point x="161" y="477.0" type="curve" smooth="yes"/>
      <point x="145" y="460.0"/>
      <point x="143.0" y="436.0"/>
    </contour>
  </outline>
</glyph>
<glyph name="endash" format="2">
  <advance width="452"/>
  <unicode hex="2013"/>
  <outline>
    <contour>
      <point x="101" y="153" type="curve" smooth="yes"/>
      <point x="328" y="153" type="line" smooth="yes"/>
      <point x="359" y="153"/>
      <point x="379" y="174"/>
      <point x="377" y="199" type="curve" smooth="yes"/>
      <point x="375" y="223"/>
      <point x="353" y="242"/>
      <point x="322" y="242" type="curve" smooth="yes"/>
      <point x="95" y="242" type="line" smooth="yes"/>
      <point x="64" y="242"/>
      <point x="44" y="223"/>
      <point x="46" y="199" type="curve" smooth="yes"/>
      <point x="48" y="174"/>
      <point x="70" y="153"/>
    </contour>
  </outline>
</glyph>
<glyph name="emdash" format="2">
  <advance width="555"/>
  <unicode hex="2014"/>
  <outline>
    <contour>
      <point x="104" y="153" type="curve" smooth="yes"/>
      <point x="427" y="153" type="line" smooth="yes"/>
      <point x="460" y="153"/>
      <point x="482" y="174"/>
      <point x="480" y="199" type="curve" smooth="yes"/>
      <point x="478" y="222"/>
      <point x="455" y="242"/>
      <point x="421" y="242" type="curve" smooth="yes"/>
      <point x="98" y="242" type="line" smooth="yes"/>
      <point x="65" y="242"/>
      <point x="44" y="222"/>
      <point x="46" y="199" type="curve" smooth="yes"/>
      <point x="48" y="174"/>
      <point x="72" y="153"/>
    </contour>
  </outline>
</glyph>
<glyph name="bullet" format="2">
	<advance width="322"/>
	<unicode hex="2022"/>
	<outline>
		<contour>
			<point x="161" y="254" type="curve" smooth="yes"/>
			<point x="215" y="254"/>
			<point x="263" y="301"/>
			<point x="263" y="355" type="curve" smooth="yes"/>
			<point x="263" y="409"/>
			<point x="215" y="454"/>
			<point x="161" y="454" type="curve" smooth="yes"/>
			<point x="106" y="454"/>
			<point x="63" y="407"/>
			<point x="63" y="355" type="curve" smooth="yes"/>
			<point x="63" y="303"/>
			<point x="105" y="254"/>
		</contour>
	</outline>
</glyph>
<glyph name="ellipsis" format="2">
	<advance width="522"/>
	<unicode hex="2026"/>
	<outline>
		<contour>
			<point x="373" y="-31" type="curve" smooth="yes"/>
			<point x="401" y="-31"/>
			<point x="428" y="-6"/>
			<point x="428" y="25" type="curve" smooth="yes"/>
			<point x="428" y="56"/>
			<point x="402" y="79"/>
			<point x="373" y="79" type="curve" smooth="yes"/>
			<point x="345" y="79"/>
			<point x="318" y="57"/>
			<point x="318" y="25" type="curve" smooth="yes"/>
			<point x="318" y="-6"/>
			<point x="344" y="-31"/>
		</contour>
		<contour>
			<point x="82" y="-31" type="curve" smooth="yes"/>
			<point x="110" y="-31"/>
			<point x="138" y="-6"/>
			<point x="138" y="25" type="curve" smooth="yes"/>
			<point x="138" y="56"/>
			<point x="111" y="79"/>
			<point x="82" y="79" type="curve" smooth="yes"/>
			<point x="54" y="79"/>
			<point x="28" y="57"/>
			<point x="28" y="25" type="curve" smooth="yes"/>
			<point x="28" y="-6"/>
			<point x="53" y="-31"/>
		</contour>
		<contour>
			<point x="228" y="-30" type="curve" smooth="yes"/>
			<point x="256" y="-30"/>
			<point x="283" y="-6"/>
			<point x="283" y="25" type="curve" smooth="yes"/>
			<point x="283" y="56"/>
			<point x="256" y="79"/>
			<point x="228" y="79" type="curve" smooth="yes"/>
			<point x="199" y="79"/>
			<point x="173" y="56"/>
			<point x="173" y="25" type="curve" smooth="yes"/>
			<point x="173" y="-6"/>
			<point x="199" y="-30"/>
		</contour>
	</outline>
</glyph>
<glyph name="minus" format="2">
  <advance width="412"/>
  <unicode hex="2212"/>
  <outline>
    <contour>
      <point x="104" y="184" type="curve" smooth="yes"/>
      <point x="331" y="184" type="line" smooth="yes"/>
      <point x="365.0" y="184.0"/>
      <point x="377.0" y="208.0"/>
      <point x="377" y="227" type="curve" smooth="yes"/>
      <point x="377.0" y="247.0"/>
      <point x="365.0" y="270.0"/>
      <point x="331" y="270" type="curve" smooth="yes"/>
      <point x="104" y="270" type="line" smooth="yes"/>
      <point x="70.0" y="270.0"/>
      <point x="58.0" y="247.0"/>
      <point x="58" y="227" type="curve" smooth="yes"/>
      <point x="58.0" y="207.0"/>
      <point x="70.0" y="184.0"/>
    </contour>
  </outline>
</glyph>
<glyph name="infinity" format="2">
  <advance width="670"/>
  <unicode hex="221E"/>
  <outline>
    <contour>
      <point x="168" y="70" type="curve" smooth="yes"/>
      <point x="231.0" y="70.0"/>
      <point x="302.99999999999994" y="121.0"/>
      <point x="360" y="181" type="curve"/>
      <point x="302" y="246" type="line"/>
      <point x="262.0" y="206.0"/>
      <point x="210.0" y="157.0"/>
      <point x="174" y="157" type="curve" smooth="yes"/>
      <point x="144.00000000000003" y="157.0"/>
      <point x="132.0" y="181.0"/>
      <point x="142" y="220" type="curve" smooth="yes"/>
      <point x="152.0" y="260.0"/>
      <point x="178.0" y="284.0"/>
      <point x="210" y="284" type="curve" smooth="yes"/>
      <point x="230.0" y="284.0"/>
      <point x="260.0" y="258.0"/>
      <point x="287" y="217" type="curve" smooth="yes"/>
      <point x="317" y="173" type="line" smooth="yes"/>
      <point x="361.0" y="109.0"/>
      <point x="417.0" y="70.0"/>
      <point x="461" y="70.0" type="curve" smooth="yes"/>
      <point x="546.9999999999999" y="70.0"/>
      <point x="609.0" y="123.99999999999999"/>
      <point x="627" y="211" type="curve" smooth="yes"/>
      <point x="652.0000000000001" y="310.0"/>
      <point x="608.0" y="371.0"/>
      <point x="511" y="371" type="curve" smooth="yes"/>
      <point x="448.0" y="371.0"/>
      <point x="376.00000000000006" y="319.99999999999994"/>
      <point x="319" y="260" type="curve"/>
      <point x="377" y="195" type="line"/>
      <point x="417.0" y="235.0"/>
      <point x="469.0" y="284.0"/>
      <point x="505" y="284" type="curve" smooth="yes"/>
      <point x="537.0" y="284.0"/>
      <point x="547.0" y="261.0"/>
      <point x="537" y="221" type="curve" smooth="yes"/>
      <point x="527.0" y="181.0"/>
      <point x="503.0" y="157.0"/>
      <point x="469" y="157" type="curve" smooth="yes"/>
      <point x="444.0" y="157.0"/>
      <point x="414.0" y="183.00000000000003"/>
      <point x="392" y="224" type="curve" smooth="yes"/>
      <point x="362" y="278" type="line" smooth="yes"/>
      <point x="330.00000000000006" y="335.00000000000006"/>
      <point x="274.0" y="371.0"/>
      <point x="216" y="371" type="curve" smooth="yes"/>
      <point x="134.0" y="371.0"/>
      <point x="72.0" y="317.0"/>
      <point x="52" y="230" type="curve" smooth="yes"/>
      <point x="29.0" y="131.0"/>
      <point x="73.00000000000001" y="70.0"/>
    </contour>
  </outline>
</glyph>
<glyph name="approxequal" format="2">
	<advance width="441"/>
	<unicode hex="2248"/>
	<outline>
		<contour>
			<point x="260" y="229" type="curve" smooth="yes"/>
			<point x="297" y="229"/>
			<point x="321" y="241"/>
			<point x="339" y="249" type="curve" smooth="yes"/>
			<point x="366" y="262"/>
			<point x="377" y="273"/>
			<point x="376" y="293" type="curve" smooth="yes"/>
			<point x="374" y="321"/>
			<point x="339" y="351"/>
			<point x="309" y="335" type="curve" smooth="yes"/>
			<point x="285" y="323"/>
			<point x="281" y="316"/>
			<point x="262" y="316" type="curve" smooth="yes"/>
			<point x="245" y="316"/>
			<point x="200" y="352"/>
			<point x="161" y="352" type="curve" smooth="yes"/>
			<point x="130" y="352"/>
			<point x="109" y="342"/>
			<point x="94" y="335" type="curve" smooth="yes"/>
			<point x="67" y="324"/>
			<point x="54" y="313"/>
			<point x="56" y="293" type="curve" smooth="yes"/>
			<point x="58" y="261"/>
			<point x="92" y="234"/>
			<point x="122" y="249" type="curve" smooth="yes"/>
			<point x="139" y="258"/>
			<point x="146" y="265"/>
			<point x="159" y="265" type="curve" smooth="yes"/>
			<point x="179" y="265"/>
			<point x="223" y="229"/>
		</contour>
		<contour>
			<point x="240" y="35" type="curve" smooth="yes"/>
			<point x="277" y="35"/>
			<point x="301" y="47"/>
			<point x="318" y="55" type="curve" smooth="yes"/>
			<point x="345" y="68"/>
			<point x="356" y="79"/>
			<point x="355" y="99" type="curve" smooth="yes"/>
			<point x="353" y="127"/>
			<point x="319" y="157"/>
			<point x="288" y="141" type="curve" smooth="yes"/>
			<point x="265" y="129"/>
			<point x="260" y="122"/>
			<point x="241" y="122" type="curve" smooth="yes"/>
			<point x="224" y="122"/>
			<point x="180" y="158"/>
			<point x="141" y="158" type="curve" smooth="yes"/>
			<point x="110" y="158"/>
			<point x="89" y="148"/>
			<point x="73" y="141" type="curve" smooth="yes"/>
			<point x="47" y="130"/>
			<point x="34" y="119"/>
			<point x="35" y="99" type="curve" smooth="yes"/>
			<point x="37" y="67"/>
			<point x="71" y="40"/>
			<point x="101" y="55" type="curve" smooth="yes"/>
			<point x="119" y="64"/>
			<point x="126" y="71"/>
			<point x="139" y="71" type="curve" smooth="yes"/>
			<point x="159" y="71"/>
			<point x="203" y="35"/>
		</contour>
	</outline>
</glyph>
<glyph name="notequal" format="2">
	<advance width="441"/>
	<unicode hex="2260"/>
	<outline>
		<contour>
			<point x="314" y="333" type="line" smooth="yes"/>
			<point x="331" y="376"/>
			<point x="301" y="401"/>
			<point x="272" y="401" type="curve" smooth="yes"/>
			<point x="255" y="401"/>
			<point x="234" y="391"/>
			<point x="226" y="372" type="curve" smooth="yes"/>
			<point x="103" y="60" type="line" smooth="yes"/>
			<point x="91" y="30"/>
			<point x="107" y="8"/>
			<point x="133" y="-1" type="curve" smooth="yes"/>
			<point x="153" y="-7"/>
			<point x="181" y="-1"/>
			<point x="190" y="22" type="curve" smooth="yes"/>
		</contour>
		<contour>
			<point x="312" y="97" type="line" smooth="yes"/>
			<point x="342" y="97"/>
			<point x="362" y="116"/>
			<point x="360" y="141" type="curve" smooth="yes"/>
			<point x="358" y="165"/>
			<point x="336" y="182"/>
			<point x="306" y="182" type="curve" smooth="yes"/>
			<point x="88" y="182" type="line" smooth="yes"/>
			<point x="58" y="182"/>
			<point x="38" y="165"/>
			<point x="40" y="141" type="curve" smooth="yes"/>
			<point x="42" y="117"/>
			<point x="64" y="97"/>
			<point x="94" y="97" type="curve" smooth="yes"/>
		</contour>
		<contour>
			<point x="328" y="248" type="line" smooth="yes"/>
			<point x="358" y="248"/>
			<point x="377" y="266"/>
			<point x="376" y="290" type="curve" smooth="yes"/>
			<point x="374" y="314"/>
			<point x="352" y="333"/>
			<point x="322" y="333" type="curve" smooth="yes"/>
			<point x="104" y="333" type="line" smooth="yes"/>
			<point x="74" y="333"/>
			<point x="54" y="314"/>
			<point x="56" y="290" type="curve" smooth="yes"/>
			<point x="57" y="266"/>
			<point x="80" y="248"/>
			<point x="110" y="248" type="curve" smooth="yes"/>
		</contour>
	</outline>
</glyph>
<glyph name="lessequal" format="2">
  <advance width="412"/>
  <unicode hex="2264"/>
  <outline>
    <contour>
      <point x="83" y="100" type="curve" smooth="yes"/>
      <point x="310" y="100" type="line" smooth="yes"/>
      <point x="344.0" y="100.0"/>
      <point x="356.0" y="124.00000000000001"/>
      <point x="356" y="143" type="curve" smooth="yes"/>
      <point x="356.0" y="163.0"/>
      <point x="344.0" y="186.0"/>
      <point x="310" y="186" type="curve" smooth="yes"/>
      <point x="83" y="186" type="line" smooth="yes"/>
      <point x="49.0" y="186.0"/>
      <point x="37.0" y="163.0"/>
      <point x="37" y="143" type="curve" smooth="yes"/>
      <point x="37.0" y="122.99999999999999"/>
      <point x="49.0" y="100.0"/>
    </contour>
    <contour>
      <point x="112" y="215" type="curve" smooth="yes"/>
      <point x="318" y="215" type="line" smooth="yes"/>
      <point x="351.0" y="215.0"/>
      <point x="364.0" y="238.0"/>
      <point x="364" y="258" type="curve" smooth="yes"/>
      <point x="364.0" y="277.0"/>
      <point x="352.0" y="301.0"/>
      <point x="318" y="301" type="curve" smooth="yes"/>
      <point x="186" y="301" type="line"/>
      <point x="197" y="275" type="line"/>
      <point x="339" y="337" type="line" smooth="yes"/>
      <point x="370.0" y="350.0"/>
      <point x="370.00000000000006" y="382.0"/>
      <point x="355" y="402" type="curve" smooth="yes"/>
      <point x="342.0" y="419.0"/>
      <point x="323.00000000000006" y="426.0"/>
      <point x="294" y="410" type="curve" smooth="yes"/>
      <point x="90" y="296" type="line" smooth="yes"/>
      <point x="72.0" y="286.00000000000006"/>
      <point x="66.0" y="272.0"/>
      <point x="66" y="258" type="curve" smooth="yes"/>
      <point x="66.0" y="239.0"/>
      <point x="78.0" y="215.0"/>
    </contour>
  </outline>
</glyph>
<glyph name="greaterequal" format="2">
  <advance width="412"/>
  <unicode hex="2265"/>
  <outline>
    <contour>
      <point x="83" y="100" type="curve" smooth="yes"/>
      <point x="310" y="100" type="line" smooth="yes"/>
      <point x="344.0" y="100.0"/>
      <point x="356.0" y="124.00000000000001"/>
      <point x="356" y="143" type="curve" smooth="yes"/>
      <point x="356.0" y="163.0"/>
      <point x="344.0" y="186.0"/>
      <point x="310" y="186" type="curve" smooth="yes"/>
      <point x="83" y="186" type="line" smooth="yes"/>
      <point x="49.0" y="186.0"/>
      <point x="37.0" y="163.0"/>
      <point x="37" y="143" type="curve" smooth="yes"/>
      <point x="37.0" y="122.99999999999999"/>
      <point x="49.0" y="100.0"/>
    </contour>
    <contour>
      <point x="113" y="215" type="curve" smooth="yes"/>
      <point x="318" y="215" type="line" smooth="yes"/>
      <point x="351.0" y="215.0"/>
      <point x="364.0" y="238.0"/>
      <point x="364" y="258" type="curve" smooth="yes"/>
      <point x="364.0" y="271.0"/>
      <point x="359.0" y="284.0"/>
      <point x="346" y="293" type="curve" smooth="yes"/>
      <point x="174" y="409" type="line" smooth="yes"/>
      <point x="145.0" y="429.0"/>
      <point x="124.0" y="419.0"/>
      <point x="111" y="403" type="curve"/>
      <point x="97.0" y="383.0"/>
      <point x="93.99999999999999" y="356.0"/>
      <point x="125" y="339" type="curve" smooth="yes"/>
      <point x="224" y="286" type="line"/>
      <point x="237" y="301" type="line"/>
      <point x="113" y="301" type="line" smooth="yes"/>
      <point x="79.0" y="301.0"/>
      <point x="66.0" y="277.0"/>
      <point x="66" y="258" type="curve"/>
      <point x="66.0" y="239.0"/>
      <point x="78.0" y="215.0"/>
    </contour>
  </outline>
</glyph>
<glyph name=".notdef" format="2">
	<advance width="639"/>
	<outline>
		<contour>
			<point x="480" y="0" type="line" smooth="yes"/>
			<point x="505" y="0"/>
			<point x="526" y="26"/>
			<point x="529" y="49" type="curve" smooth="yes"/>
			<point x="593" y="659" type="line" smooth="yes"/>
			<point x="596" y="687"/>
			<point x="580" y="700"/>
			<point x="543" y="700" type="curve"/>
			<point x="163" y="700" type="line"/>
			<point x="135" y="700"/>
			<point x="115" y="687"/>
			<point x="112" y="659" type="curve" smooth="yes"/>
			<point x="48" y="49" type="line" smooth="yes"/>
			<point x="45" y="21"/>
			<point x="60" y="0"/>
			<point x="99" y="0" type="curve" smooth="yes"/>
		</contour>
		<contour>
			<point x="154" y="95" type="line"/>
			<point x="209" y="605" type="line"/>
			<point x="486" y="605" type="line"/>
			<point x="431" y="95" type="line"/>
		</contour>
	</outline>
</glyph>
